<?xml version="1.0" encoding="utf-8" standalone="no"?>
<!DOCTYPE svg PUBLIC "-//W3C//DTD SVG 1.1//EN"
  "http://www.w3.org/Graphics/SVG/1.1/DTD/svg11.dtd">
<svg xmlns:xlink="http://www.w3.org/1999/xlink" width="798.98308pt" height="840.424pt" viewBox="0 0 798.98308 840.424" xmlns="http://www.w3.org/2000/svg" version="1.1">
 <metadata>
  <rdf:RDF xmlns:dc="http://purl.org/dc/elements/1.1/" xmlns:cc="http://creativecommons.org/ns#" xmlns:rdf="http://www.w3.org/1999/02/22-rdf-syntax-ns#">
   <cc:Work>
    <dc:type rdf:resource="http://purl.org/dc/dcmitype/StillImage"/>
    <dc:date>2026-05-05T22:58:04.011874</dc:date>
    <dc:format>image/svg+xml</dc:format>
    <dc:creator>
     <cc:Agent>
      <dc:title>Matplotlib v3.10.8, https://matplotlib.org/</dc:title>
     </cc:Agent>
    </dc:creator>
   </cc:Work>
  </rdf:RDF>
 </metadata>
 <defs>
  <style type="text/css">*{stroke-linejoin: round; stroke-linecap: butt}</style>
 </defs>
 <g id="figure_1">
  <g id="patch_1">
   <path d="M 0 840.424 
L 798.98308 840.424 
L 798.98308 0 
L 0 0 
z
" style="fill: #ffffff"/>
  </g>
  <g id="axes_1">
   <g id="patch_2">
    <path d="M 64.525938 191.746412 
L 791.78308 191.746412 
L 791.78308 64.08 
L 64.525938 64.08 
z
" style="fill: #ffffff"/>
   </g>
   <g id="matplotlib.axis_1">
    <g id="xtick_1">
     <g id="line2d_1">
      <path d="M 97.58308 191.746412 
L 97.58308 64.08 
" clip-path="url(#p2402a8c05f)" style="fill: none; stroke-dasharray: 2.96,1.28; stroke-dashoffset: 0; stroke: #b0b0b0; stroke-opacity: 0.25; stroke-width: 0.8"/>
     </g>
     <g id="line2d_2">
      <defs>
       <path id="m4aeabb95a5" d="M 0 0 
L 0 3.5 
" style="stroke: #000000; stroke-width: 0.8"/>
      </defs>
      <g>
       <use xlink:href="#m4aeabb95a5" x="97.58308" y="191.746412" style="stroke: #000000; stroke-width: 0.8"/>
      </g>
     </g>
    </g>
    <g id="xtick_2">
     <g id="line2d_3">
      <path d="M 226.586565 191.746412 
L 226.586565 64.08 
" clip-path="url(#p2402a8c05f)" style="fill: none; stroke-dasharray: 2.96,1.28; stroke-dashoffset: 0; stroke: #b0b0b0; stroke-opacity: 0.25; stroke-width: 0.8"/>
     </g>
     <g id="line2d_4">
      <g>
       <use xlink:href="#m4aeabb95a5" x="226.586565" y="191.746412" style="stroke: #000000; stroke-width: 0.8"/>
      </g>
     </g>
    </g>
    <g id="xtick_3">
     <g id="line2d_5">
      <path d="M 355.590049 191.746412 
L 355.590049 64.08 
" clip-path="url(#p2402a8c05f)" style="fill: none; stroke-dasharray: 2.96,1.28; stroke-dashoffset: 0; stroke: #b0b0b0; stroke-opacity: 0.25; stroke-width: 0.8"/>
     </g>
     <g id="line2d_6">
      <g>
       <use xlink:href="#m4aeabb95a5" x="355.590049" y="191.746412" style="stroke: #000000; stroke-width: 0.8"/>
      </g>
     </g>
    </g>
    <g id="xtick_4">
     <g id="line2d_7">
      <path d="M 484.593533 191.746412 
L 484.593533 64.08 
" clip-path="url(#p2402a8c05f)" style="fill: none; stroke-dasharray: 2.96,1.28; stroke-dashoffset: 0; stroke: #b0b0b0; stroke-opacity: 0.25; stroke-width: 0.8"/>
     </g>
     <g id="line2d_8">
      <g>
       <use xlink:href="#m4aeabb95a5" x="484.593533" y="191.746412" style="stroke: #000000; stroke-width: 0.8"/>
      </g>
     </g>
    </g>
    <g id="xtick_5">
     <g id="line2d_9">
      <path d="M 613.597018 191.746412 
L 613.597018 64.08 
" clip-path="url(#p2402a8c05f)" style="fill: none; stroke-dasharray: 2.96,1.28; stroke-dashoffset: 0; stroke: #b0b0b0; stroke-opacity: 0.25; stroke-width: 0.8"/>
     </g>
     <g id="line2d_10">
      <g>
       <use xlink:href="#m4aeabb95a5" x="613.597018" y="191.746412" style="stroke: #000000; stroke-width: 0.8"/>
      </g>
     </g>
    </g>
    <g id="xtick_6">
     <g id="line2d_11">
      <path d="M 742.600502 191.746412 
L 742.600502 64.08 
" clip-path="url(#p2402a8c05f)" style="fill: none; stroke-dasharray: 2.96,1.28; stroke-dashoffset: 0; stroke: #b0b0b0; stroke-opacity: 0.25; stroke-width: 0.8"/>
     </g>
     <g id="line2d_12">
      <g>
       <use xlink:href="#m4aeabb95a5" x="742.600502" y="191.746412" style="stroke: #000000; stroke-width: 0.8"/>
      </g>
     </g>
    </g>
   </g>
   <g id="matplotlib.axis_2">
    <g id="ytick_1">
     <g id="line2d_13">
      <path d="M 64.525938 185.529819 
L 791.78308 185.529819 
" clip-path="url(#p2402a8c05f)" style="fill: none; stroke-dasharray: 2.96,1.28; stroke-dashoffset: 0; stroke: #b0b0b0; stroke-opacity: 0.25; stroke-width: 0.8"/>
     </g>
     <g id="line2d_14">
      <defs>
       <path id="m86f4e93e74" d="M 0 0 
L -3.5 0 
" style="stroke: #000000; stroke-width: 0.8"/>
      </defs>
      <g>
       <use xlink:href="#m86f4e93e74" x="64.525938" y="185.529819" style="stroke: #000000; stroke-width: 0.8"/>
      </g>
     </g>
     <g id="text_1">
      <text style="font-size: 10px; font-family: 'DejaVu Sans'; text-anchor: end" x="57.525938" y="189.329038" transform="rotate(-0 57.525938 189.329038)">0</text>
     </g>
    </g>
    <g id="ytick_2">
     <g id="line2d_15">
      <path d="M 64.525938 159.074611 
L 791.78308 159.074611 
" clip-path="url(#p2402a8c05f)" style="fill: none; stroke-dasharray: 2.96,1.28; stroke-dashoffset: 0; stroke: #b0b0b0; stroke-opacity: 0.25; stroke-width: 0.8"/>
     </g>
     <g id="line2d_16">
      <g>
       <use xlink:href="#m86f4e93e74" x="64.525938" y="159.074611" style="stroke: #000000; stroke-width: 0.8"/>
      </g>
     </g>
     <g id="text_2">
      <text style="font-size: 10px; font-family: 'DejaVu Sans'; text-anchor: end" x="57.525938" y="162.873829" transform="rotate(-0 57.525938 162.873829)">1000</text>
     </g>
    </g>
    <g id="ytick_3">
     <g id="line2d_17">
      <path d="M 64.525938 132.619402 
L 791.78308 132.619402 
" clip-path="url(#p2402a8c05f)" style="fill: none; stroke-dasharray: 2.96,1.28; stroke-dashoffset: 0; stroke: #b0b0b0; stroke-opacity: 0.25; stroke-width: 0.8"/>
     </g>
     <g id="line2d_18">
      <g>
       <use xlink:href="#m86f4e93e74" x="64.525938" y="132.619402" style="stroke: #000000; stroke-width: 0.8"/>
      </g>
     </g>
     <g id="text_3">
      <text style="font-size: 10px; font-family: 'DejaVu Sans'; text-anchor: end" x="57.525938" y="136.418621" transform="rotate(-0 57.525938 136.418621)">2000</text>
     </g>
    </g>
    <g id="ytick_4">
     <g id="line2d_19">
      <path d="M 64.525938 106.164194 
L 791.78308 106.164194 
" clip-path="url(#p2402a8c05f)" style="fill: none; stroke-dasharray: 2.96,1.28; stroke-dashoffset: 0; stroke: #b0b0b0; stroke-opacity: 0.25; stroke-width: 0.8"/>
     </g>
     <g id="line2d_20">
      <g>
       <use xlink:href="#m86f4e93e74" x="64.525938" y="106.164194" style="stroke: #000000; stroke-width: 0.8"/>
      </g>
     </g>
     <g id="text_4">
      <text style="font-size: 10px; font-family: 'DejaVu Sans'; text-anchor: end" x="57.525938" y="109.963413" transform="rotate(-0 57.525938 109.963413)">3000</text>
     </g>
    </g>
    <g id="ytick_5">
     <g id="line2d_21">
      <path d="M 64.525938 79.708986 
L 791.78308 79.708986 
" clip-path="url(#p2402a8c05f)" style="fill: none; stroke-dasharray: 2.96,1.28; stroke-dashoffset: 0; stroke: #b0b0b0; stroke-opacity: 0.25; stroke-width: 0.8"/>
     </g>
     <g id="line2d_22">
      <g>
       <use xlink:href="#m86f4e93e74" x="64.525938" y="79.708986" style="stroke: #000000; stroke-width: 0.8"/>
      </g>
     </g>
     <g id="text_5">
      <text style="font-size: 10px; font-family: 'DejaVu Sans'; text-anchor: end" x="57.525938" y="83.508204" transform="rotate(-0 57.525938 83.508204)">4000</text>
     </g>
    </g>
    <g id="text_6">
     <text style="font-size: 10px; font-family: 'DejaVu Sans'" transform="translate(14.798438 157.34055) rotate(-90)">seed 10991</text>
     <text style="font-size: 10px; font-family: 'DejaVu Sans'" transform="translate(25.99625 145.22805) rotate(-90)">reward</text>
    </g>
   </g>
   <g id="line2d_23">
    <path d="M 97.58308 185.239843 
L 113.708516 185.239843 
L 116.933603 179.626101 
L 120.15869 180.467377 
L 123.383777 179.961315 
L 126.608864 179.924754 
L 129.833951 176.718753 
L 133.059039 179.505333 
L 136.284126 180.439784 
L 139.509213 182.493026 
L 142.7343 180.284227 
L 145.959387 175.01689 
L 149.184474 171.21234 
L 152.409561 168.589068 
L 155.634648 170.915327 
L 158.859735 175.46729 
L 162.084823 177.608415 
L 165.30991 170.845353 
L 168.534997 169.98794 
L 171.760084 178.122175 
L 174.985171 178.178393 
L 178.210258 177.152619 
L 181.435345 174.183445 
L 184.660432 174.90472 
L 187.885519 176.552958 
L 191.110606 173.043913 
L 194.335694 166.772865 
L 197.560781 168.079249 
L 200.785868 165.322643 
L 204.010955 175.375622 
L 207.236042 173.991883 
L 210.461129 166.468445 
L 213.686216 178.080773 
L 216.911303 171.182578 
L 220.13639 172.693831 
L 223.361478 172.100732 
L 226.586565 166.786039 
L 229.811652 166.122172 
L 233.036739 170.969375 
L 236.261826 172.516714 
L 239.486913 171.830386 
L 242.712 170.418154 
L 245.937087 167.621257 
L 249.162174 168.258166 
L 252.387262 170.41416 
L 255.612349 169.028012 
L 258.837436 164.821978 
L 262.062523 172.308802 
L 265.28761 169.099706 
L 268.512697 170.42371 
L 271.737784 171.434299 
L 274.962871 167.511097 
L 278.187958 169.056214 
L 281.413046 169.137987 
L 284.638133 168.29642 
L 287.86322 165.836324 
L 291.088307 171.694936 
L 294.313394 161.362219 
L 297.538481 166.25257 
L 300.763568 169.49537 
L 303.988655 162.260876 
L 307.213742 165.508491 
L 310.438829 163.713822 
L 313.663917 169.324284 
L 316.889004 164.164857 
L 320.114091 165.256505 
L 323.339178 160.607716 
L 326.564265 162.615376 
L 329.789352 162.932944 
L 333.014439 164.16573 
L 336.239526 163.199639 
L 339.464613 164.644279 
L 342.689701 164.062555 
L 349.139875 164.652321 
L 352.364962 167.019559 
L 355.590049 164.679543 
L 358.815136 164.151127 
L 362.040223 162.758234 
L 365.26531 164.302371 
L 368.490397 163.887025 
L 371.715485 171.645729 
L 374.940572 162.738445 
L 378.165659 163.703135 
L 381.390746 161.827354 
L 384.615833 162.558682 
L 387.84092 165.669815 
L 391.066007 163.274296 
L 394.291094 162.024023 
L 397.516181 160.426101 
L 400.741269 164.182873 
L 403.966356 163.340804 
L 407.191443 161.665793 
L 410.41653 164.854386 
L 413.641617 161.689576 
L 416.866704 160.505282 
L 420.091791 166.897231 
L 423.316878 159.592313 
L 426.541965 167.274746 
L 429.767052 159.639085 
L 432.99214 159.254347 
L 436.217227 162.271511 
L 439.442314 157.752274 
L 442.667401 157.872036 
L 445.892488 160.12811 
L 449.117575 160.717162 
L 452.342662 160.966767 
L 455.567749 157.754602 
L 458.792836 158.062911 
L 462.017924 162.874399 
L 465.243011 159.597974 
L 468.468098 159.466862 
L 471.693185 159.752234 
L 474.918272 158.545401 
L 478.143359 159.334348 
L 481.368446 153.288328 
L 484.593533 152.470941 
L 487.81862 160.328085 
L 491.043708 155.233923 
L 494.268795 157.940053 
L 497.493882 150.628415 
L 500.718969 159.151437 
L 503.944056 142.232299 
L 507.169143 129.957956 
L 510.39423 142.614498 
L 513.619317 129.831394 
L 516.844404 149.68616 
L 520.069492 135.8717 
L 523.294579 142.476322 
L 526.519666 146.4409 
L 529.744753 134.838783 
L 532.96984 154.375478 
L 536.194927 139.364502 
L 539.420014 131.993525 
L 542.645101 131.086217 
L 545.870188 129.975046 
L 549.095275 125.431364 
L 552.320363 144.81737 
L 555.54545 140.944063 
L 558.770537 126.670367 
L 561.995624 131.909847 
L 565.220711 143.702018 
L 568.445798 152.728535 
L 571.670885 129.510095 
L 574.895972 125.298214 
L 578.121059 116.310825 
L 581.346147 111.562326 
L 584.571234 131.241827 
L 587.796321 141.798804 
L 591.021408 113.563557 
L 594.246495 127.417779 
L 597.471582 130.49907 
L 600.696669 119.058489 
L 603.921756 131.51786 
L 607.146843 121.670385 
L 610.371931 120.280693 
L 613.597018 130.731321 
L 616.822105 127.901857 
L 620.047192 133.754384 
L 623.272279 123.673494 
L 626.497366 134.820714 
L 629.722453 118.915975 
L 632.94754 122.949151 
L 636.172627 134.958995 
L 639.397715 135.781779 
L 642.622802 127.590585 
L 645.847889 126.370153 
L 649.072976 133.237978 
L 652.298063 118.453749 
L 655.52315 131.316457 
L 658.748237 125.770705 
L 661.973324 124.299345 
L 665.198411 133.52261 
L 668.423498 131.955562 
L 671.648586 138.813228 
L 674.873673 113.470461 
L 678.09876 122.172849 
L 681.323847 117.020591 
L 684.548934 112.590773 
L 687.774021 108.873684 
L 690.999108 117.573823 
L 694.224195 116.396434 
L 697.449282 116.555562 
L 700.67437 116.831886 
L 703.899457 113.559959 
L 707.124544 104.764264 
L 710.349631 106.777611 
L 713.574718 122.915897 
L 716.799805 108.665455 
L 720.024892 106.821262 
L 723.249979 108.886964 
L 726.475066 123.80749 
L 729.700154 106.237237 
L 732.925241 107.970476 
L 736.150328 119.885929 
L 739.375415 116.252306 
L 742.600502 106.086522 
L 745.825589 99.34375 
L 749.050676 106.919437 
L 752.275763 108.840958 
L 755.50085 106.447027 
L 758.725937 97.646331 
L 758.725937 97.646331 
" clip-path="url(#p2402a8c05f)" style="fill: none; stroke: #2f6db3; stroke-width: 1.8; stroke-linecap: square"/>
   </g>
   <g id="line2d_24">
    <path d="M 97.58308 185.239843 
L 113.708516 185.239843 
L 116.933603 178.132467 
L 120.15869 183.305095 
L 123.383777 180.844178 
L 126.608864 185.244896 
L 129.833951 177.910454 
L 133.059039 179.222818 
L 136.284126 185.943393 
L 139.509213 176.53518 
L 142.7343 175.907345 
L 145.959387 179.208585 
L 149.184474 177.302143 
L 152.409561 177.505505 
L 155.634648 175.014562 
L 158.859735 177.037538 
L 162.084823 178.413103 
L 165.30991 178.732047 
L 168.534997 175.784726 
L 171.760084 175.346283 
L 174.985171 178.198605 
L 178.210258 175.499618 
L 181.435345 173.354312 
L 184.660432 172.943039 
L 187.885519 172.681159 
L 191.110606 172.765207 
L 194.335694 165.497724 
L 197.560781 168.023429 
L 200.785868 152.911182 
L 204.010955 161.842249 
L 207.236042 161.663994 
L 210.461129 175.817107 
L 213.686216 148.226044 
L 216.911303 169.337485 
L 220.13639 172.08142 
L 223.361478 160.402371 
L 226.586565 162.278363 
L 229.811652 156.684277 
L 233.036739 150.443308 
L 236.261826 136.625038 
L 239.486913 139.254025 
L 242.712 142.094335 
L 245.937087 127.583283 
L 249.162174 155.145774 
L 252.387262 120.451276 
L 255.612349 115.643968 
L 258.837436 113.456625 
L 262.062523 140.763056 
L 265.28761 111.258647 
L 268.512697 103.141237 
L 271.737784 135.855536 
L 274.962871 102.658376 
L 278.187958 96.331878 
L 281.413046 103.078511 
L 284.638133 101.047095 
L 287.86322 109.171225 
L 291.088307 101.226171 
L 294.313394 114.324726 
L 297.538481 101.511226 
L 300.763568 101.499479 
L 303.988655 104.376642 
L 307.213742 108.922255 
L 310.438829 94.441733 
L 313.663917 92.46873 
L 316.889004 104.748629 
L 320.114091 119.431375 
L 323.339178 91.713619 
L 326.564265 115.186267 
L 329.789352 126.550948 
L 333.014439 107.177772 
L 336.239526 107.585765 
L 339.464613 103.068326 
L 342.689701 93.498393 
L 345.914788 107.62386 
L 349.139875 99.768542 
L 352.364962 96.35574 
L 355.590049 101.7471 
L 358.815136 97.375086 
L 362.040223 108.161986 
L 365.26531 97.52342 
L 368.490397 87.976185 
L 371.715485 105.779747 
L 374.940572 108.962758 
L 378.165659 98.485834 
L 381.390746 93.500959 
L 384.615833 89.438867 
L 387.84092 98.011228 
L 391.066007 93.345746 
L 394.291094 91.329701 
L 397.516181 97.666966 
L 400.741269 95.85997 
L 403.966356 90.044586 
L 407.191443 86.425037 
L 410.41653 87.794888 
L 413.641617 86.186993 
L 416.866704 99.789759 
L 420.091791 91.319198 
L 423.316878 84.622882 
L 426.541965 86.394429 
L 429.767052 86.725039 
L 432.99214 84.185233 
L 436.217227 128.309135 
L 439.442314 89.929056 
L 442.667401 84.626321 
L 445.892488 85.105769 
L 449.117575 83.080385 
L 452.342662 82.238342 
L 455.567749 89.868394 
L 458.792836 80.397456 
L 462.017924 78.538422 
L 465.243011 80.455076 
L 468.468098 91.762534 
L 471.693185 83.722743 
L 474.918272 75.160251 
L 481.368446 84.597485 
L 484.593533 77.772279 
L 487.81862 81.362039 
L 491.043708 82.181225 
L 494.268795 79.084511 
L 497.493882 80.696532 
L 500.718969 107.096767 
L 503.944056 81.743815 
L 507.169143 80.478647 
L 510.39423 84.432166 
L 513.619317 77.794184 
L 516.844404 77.44606 
L 520.069492 78.577655 
L 523.294579 77.172513 
L 526.519666 77.706459 
L 529.744753 76.05367 
L 532.96984 77.828576 
L 536.194927 79.465836 
L 539.420014 76.886083 
L 542.645101 85.249791 
L 545.870188 78.690434 
L 549.095275 75.408903 
L 552.320363 77.271773 
L 555.54545 70.98464 
L 558.770537 73.420477 
L 561.995624 76.114437 
L 565.220711 72.674996 
L 568.445798 77.612172 
L 571.670885 75.209987 
L 574.895972 77.830825 
L 578.121059 78.422734 
L 581.346147 76.689759 
L 584.571234 74.739983 
L 587.796321 79.825045 
L 591.021408 77.36643 
L 594.246495 73.929237 
L 597.471582 74.820222 
L 600.696669 75.476496 
L 603.921756 70.760062 
L 607.146843 77.010078 
L 610.371931 73.049416 
L 613.597018 76.293036 
L 616.822105 82.21067 
L 620.047192 77.483203 
L 623.272279 75.851499 
L 626.497366 77.660718 
L 629.722453 73.683547 
L 636.172627 83.084723 
L 639.397715 75.366416 
L 642.622802 74.63739 
L 645.847889 76.268856 
L 649.072976 74.133339 
L 652.298063 76.706769 
L 655.52315 72.385232 
L 658.748237 73.46553 
L 661.973324 84.180921 
L 665.198411 73.390583 
L 668.423498 78.694931 
L 671.648586 74.962366 
L 674.873673 73.712331 
L 678.09876 76.926718 
L 681.323847 76.989311 
L 684.548934 75.420358 
L 687.774021 74.575961 
L 690.999108 72.622879 
L 694.224195 77.10156 
L 697.449282 79.090304 
L 700.67437 77.064655 
L 703.899457 73.735691 
L 707.124544 74.873503 
L 710.349631 71.822582 
L 713.574718 73.435768 
L 716.799805 73.930163 
L 720.024892 74.6603 
L 723.249979 76.371846 
L 726.475066 72.175415 
L 729.700154 69.883019 
L 732.925241 70.82448 
L 736.150328 71.905414 
L 739.375415 74.159821 
L 742.600502 71.148054 
L 745.825589 72.349729 
L 749.050676 70.214185 
L 752.275763 73.468149 
L 755.50085 75.398136 
L 758.725937 72.71571 
L 758.725937 72.71571 
" clip-path="url(#p2402a8c05f)" style="fill: none; stroke: #c44e52; stroke-width: 1.8; stroke-linecap: square"/>
   </g>
   <g id="patch_3">
    <path d="M 64.525938 191.746412 
L 64.525938 64.08 
" style="fill: none; stroke: #000000; stroke-width: 0.8; stroke-linejoin: miter; stroke-linecap: square"/>
   </g>
   <g id="patch_4">
    <path d="M 64.525938 191.746412 
L 791.78308 191.746412 
" style="fill: none; stroke: #000000; stroke-width: 0.8; stroke-linejoin: miter; stroke-linecap: square"/>
   </g>
  </g>
  <g id="axes_2">
   <g id="patch_5">
    <path d="M 64.525938 334.678095 
L 791.78308 334.678095 
L 791.78308 207.011683 
L 64.525938 207.011683 
z
" style="fill: #ffffff"/>
   </g>
   <g id="matplotlib.axis_3">
    <g id="xtick_7">
     <g id="line2d_25">
      <path d="M 97.58308 334.678095 
L 97.58308 207.011683 
" clip-path="url(#pd74a24b9c7)" style="fill: none; stroke-dasharray: 2.96,1.28; stroke-dashoffset: 0; stroke: #b0b0b0; stroke-opacity: 0.25; stroke-width: 0.8"/>
     </g>
     <g id="line2d_26">
      <g>
       <use xlink:href="#m4aeabb95a5" x="97.58308" y="334.678095" style="stroke: #000000; stroke-width: 0.8"/>
      </g>
     </g>
    </g>
    <g id="xtick_8">
     <g id="line2d_27">
      <path d="M 226.586565 334.678095 
L 226.586565 207.011683 
" clip-path="url(#pd74a24b9c7)" style="fill: none; stroke-dasharray: 2.96,1.28; stroke-dashoffset: 0; stroke: #b0b0b0; stroke-opacity: 0.25; stroke-width: 0.8"/>
     </g>
     <g id="line2d_28">
      <g>
       <use xlink:href="#m4aeabb95a5" x="226.586565" y="334.678095" style="stroke: #000000; stroke-width: 0.8"/>
      </g>
     </g>
    </g>
    <g id="xtick_9">
     <g id="line2d_29">
      <path d="M 355.590049 334.678095 
L 355.590049 207.011683 
" clip-path="url(#pd74a24b9c7)" style="fill: none; stroke-dasharray: 2.96,1.28; stroke-dashoffset: 0; stroke: #b0b0b0; stroke-opacity: 0.25; stroke-width: 0.8"/>
     </g>
     <g id="line2d_30">
      <g>
       <use xlink:href="#m4aeabb95a5" x="355.590049" y="334.678095" style="stroke: #000000; stroke-width: 0.8"/>
      </g>
     </g>
    </g>
    <g id="xtick_10">
     <g id="line2d_31">
      <path d="M 484.593533 334.678095 
L 484.593533 207.011683 
" clip-path="url(#pd74a24b9c7)" style="fill: none; stroke-dasharray: 2.96,1.28; stroke-dashoffset: 0; stroke: #b0b0b0; stroke-opacity: 0.25; stroke-width: 0.8"/>
     </g>
     <g id="line2d_32">
      <g>
       <use xlink:href="#m4aeabb95a5" x="484.593533" y="334.678095" style="stroke: #000000; stroke-width: 0.8"/>
      </g>
     </g>
    </g>
    <g id="xtick_11">
     <g id="line2d_33">
      <path d="M 613.597018 334.678095 
L 613.597018 207.011683 
" clip-path="url(#pd74a24b9c7)" style="fill: none; stroke-dasharray: 2.96,1.28; stroke-dashoffset: 0; stroke: #b0b0b0; stroke-opacity: 0.25; stroke-width: 0.8"/>
     </g>
     <g id="line2d_34">
      <g>
       <use xlink:href="#m4aeabb95a5" x="613.597018" y="334.678095" style="stroke: #000000; stroke-width: 0.8"/>
      </g>
     </g>
    </g>
    <g id="xtick_12">
     <g id="line2d_35">
      <path d="M 742.600502 334.678095 
L 742.600502 207.011683 
" clip-path="url(#pd74a24b9c7)" style="fill: none; stroke-dasharray: 2.96,1.28; stroke-dashoffset: 0; stroke: #b0b0b0; stroke-opacity: 0.25; stroke-width: 0.8"/>
     </g>
     <g id="line2d_36">
      <g>
       <use xlink:href="#m4aeabb95a5" x="742.600502" y="334.678095" style="stroke: #000000; stroke-width: 0.8"/>
      </g>
     </g>
    </g>
   </g>
   <g id="matplotlib.axis_4">
    <g id="ytick_6">
     <g id="line2d_37">
      <path d="M 64.525938 328.452208 
L 791.78308 328.452208 
" clip-path="url(#pd74a24b9c7)" style="fill: none; stroke-dasharray: 2.96,1.28; stroke-dashoffset: 0; stroke: #b0b0b0; stroke-opacity: 0.25; stroke-width: 0.8"/>
     </g>
     <g id="line2d_38">
      <g>
       <use xlink:href="#m86f4e93e74" x="64.525938" y="328.452208" style="stroke: #000000; stroke-width: 0.8"/>
      </g>
     </g>
     <g id="text_7">
      <text style="font-size: 10px; font-family: 'DejaVu Sans'; text-anchor: end" x="57.525938" y="332.251427" transform="rotate(-0 57.525938 332.251427)">0</text>
     </g>
    </g>
    <g id="ytick_7">
     <g id="line2d_39">
      <path d="M 64.525938 299.405083 
L 791.78308 299.405083 
" clip-path="url(#pd74a24b9c7)" style="fill: none; stroke-dasharray: 2.96,1.28; stroke-dashoffset: 0; stroke: #b0b0b0; stroke-opacity: 0.25; stroke-width: 0.8"/>
     </g>
     <g id="line2d_40">
      <g>
       <use xlink:href="#m86f4e93e74" x="64.525938" y="299.405083" style="stroke: #000000; stroke-width: 0.8"/>
      </g>
     </g>
     <g id="text_8">
      <text style="font-size: 10px; font-family: 'DejaVu Sans'; text-anchor: end" x="57.525938" y="303.204301" transform="rotate(-0 57.525938 303.204301)">1000</text>
     </g>
    </g>
    <g id="ytick_8">
     <g id="line2d_41">
      <path d="M 64.525938 270.357957 
L 791.78308 270.357957 
" clip-path="url(#pd74a24b9c7)" style="fill: none; stroke-dasharray: 2.96,1.28; stroke-dashoffset: 0; stroke: #b0b0b0; stroke-opacity: 0.25; stroke-width: 0.8"/>
     </g>
     <g id="line2d_42">
      <g>
       <use xlink:href="#m86f4e93e74" x="64.525938" y="270.357957" style="stroke: #000000; stroke-width: 0.8"/>
      </g>
     </g>
     <g id="text_9">
      <text style="font-size: 10px; font-family: 'DejaVu Sans'; text-anchor: end" x="57.525938" y="274.157176" transform="rotate(-0 57.525938 274.157176)">2000</text>
     </g>
    </g>
    <g id="ytick_9">
     <g id="line2d_43">
      <path d="M 64.525938 241.310832 
L 791.78308 241.310832 
" clip-path="url(#pd74a24b9c7)" style="fill: none; stroke-dasharray: 2.96,1.28; stroke-dashoffset: 0; stroke: #b0b0b0; stroke-opacity: 0.25; stroke-width: 0.8"/>
     </g>
     <g id="line2d_44">
      <g>
       <use xlink:href="#m86f4e93e74" x="64.525938" y="241.310832" style="stroke: #000000; stroke-width: 0.8"/>
      </g>
     </g>
     <g id="text_10">
      <text style="font-size: 10px; font-family: 'DejaVu Sans'; text-anchor: end" x="57.525938" y="245.110051" transform="rotate(-0 57.525938 245.110051)">3000</text>
     </g>
    </g>
    <g id="ytick_10">
     <g id="line2d_45">
      <path d="M 64.525938 212.263707 
L 791.78308 212.263707 
" clip-path="url(#pd74a24b9c7)" style="fill: none; stroke-dasharray: 2.96,1.28; stroke-dashoffset: 0; stroke: #b0b0b0; stroke-opacity: 0.25; stroke-width: 0.8"/>
     </g>
     <g id="line2d_46">
      <g>
       <use xlink:href="#m86f4e93e74" x="64.525938" y="212.263707" style="stroke: #000000; stroke-width: 0.8"/>
      </g>
     </g>
     <g id="text_11">
      <text style="font-size: 10px; font-family: 'DejaVu Sans'; text-anchor: end" x="57.525938" y="216.062925" transform="rotate(-0 57.525938 216.062925)">4000</text>
     </g>
    </g>
    <g id="text_12">
     <text style="font-size: 10px; font-family: 'DejaVu Sans'" transform="translate(14.798438 300.272232) rotate(-90)">seed 22297</text>
     <text style="font-size: 10px; font-family: 'DejaVu Sans'" transform="translate(25.99625 288.159732) rotate(-90)">reward</text>
    </g>
   </g>
   <g id="line2d_47">
    <path d="M 97.58308 328.456478 
L 113.708516 328.456478 
L 116.933603 328.875076 
L 120.15869 327.909811 
L 123.383777 327.837135 
L 126.608864 326.354483 
L 129.833951 325.678759 
L 133.059039 326.352246 
L 136.284126 325.56899 
L 139.509213 320.790099 
L 142.7343 323.45558 
L 145.959387 322.674357 
L 149.184474 322.549513 
L 152.409561 320.776534 
L 155.634648 318.869939 
L 158.859735 319.365396 
L 162.084823 319.370014 
L 165.30991 319.164883 
L 168.534997 319.521756 
L 174.985171 319.651975 
L 178.210258 319.624467 
L 181.435345 319.396709 
L 184.660432 319.318107 
L 187.885519 319.064235 
L 191.110606 319.481497 
L 194.335694 319.641082 
L 200.785868 319.627691 
L 204.010955 319.398335 
L 210.461129 319.495033 
L 213.686216 319.796687 
L 216.911303 319.816207 
L 220.13639 319.538429 
L 223.361478 319.722153 
L 226.586565 320.559145 
L 229.811652 320.027322 
L 233.036739 320.344168 
L 236.261826 320.447924 
L 239.486913 320.383962 
L 242.712 320.466224 
L 245.937087 320.157337 
L 249.162174 327.57879 
L 252.387262 320.163059 
L 255.612349 319.895041 
L 258.837436 320.473805 
L 262.062523 320.076411 
L 265.28761 320.482287 
L 274.962871 320.437845 
L 313.663917 320.433923 
L 320.114091 320.491291 
L 323.339178 320.401855 
L 336.239526 320.486121 
L 352.364962 320.491698 
L 358.815136 320.530244 
L 365.26531 320.414142 
L 368.490397 320.542008 
L 371.715485 320.301294 
L 374.940572 319.609275 
L 378.165659 319.879007 
L 384.615833 319.93774 
L 387.84092 320.173951 
L 391.066007 320.171599 
L 400.741269 320.514936 
L 403.966356 320.123032 
L 407.191443 320.524289 
L 420.091791 320.576632 
L 423.316878 320.428433 
L 426.541965 320.558768 
L 429.767052 320.571403 
L 432.99214 320.394855 
L 436.217227 320.360405 
L 439.442314 320.542211 
L 442.667401 320.462564 
L 449.117575 320.456144 
L 462.017924 320.515052 
L 465.243011 320.575528 
L 468.468098 320.370862 
L 474.918272 320.434301 
L 484.593533 320.436073 
L 487.81862 320.269255 
L 491.043708 320.543373 
L 497.493882 320.389191 
L 500.718969 320.550344 
L 503.944056 320.405225 
L 513.619317 320.545145 
L 516.844404 320.393867 
L 523.294579 320.446384 
L 529.744753 320.54253 
L 532.96984 320.380331 
L 536.194927 320.523359 
L 539.420014 320.431541 
L 552.320363 320.552232 
L 565.220711 320.331765 
L 568.445798 320.508836 
L 574.895972 320.348031 
L 578.121059 320.504217 
L 581.346147 320.473108 
L 584.571234 320.308759 
L 597.471582 320.51816 
L 600.696669 320.373883 
L 603.921756 320.530534 
L 607.146843 320.319332 
L 613.597018 320.487254 
L 616.822105 320.282965 
L 620.047192 320.428782 
L 623.272279 320.3749 
L 626.497366 319.976605 
L 632.94754 320.484436 
L 636.172627 320.458294 
L 639.397715 320.034148 
L 642.622802 320.4709 
L 649.072976 320.56144 
L 652.298063 320.387186 
L 655.52315 320.528152 
L 661.973324 320.368073 
L 665.198411 320.093665 
L 668.423498 320.374115 
L 671.648586 319.998274 
L 674.873673 320.548078 
L 681.323847 320.54802 
L 684.548934 320.273757 
L 690.999108 320.508226 
L 694.224195 319.938234 
L 697.449282 320.361364 
L 700.67437 320.520803 
L 707.124544 320.433313 
L 710.349631 320.067116 
L 713.574718 320.571636 
L 720.024892 320.500993 
L 723.249979 320.562021 
L 726.475066 320.021948 
L 729.700154 320.566233 
L 732.925241 320.475635 
L 736.150328 320.567918 
L 749.050676 320.503259 
L 752.275763 320.570997 
L 755.50085 320.347595 
L 758.725937 320.531115 
L 758.725937 320.531115 
" clip-path="url(#pd74a24b9c7)" style="fill: none; stroke: #2f6db3; stroke-width: 1.8; stroke-linecap: square"/>
   </g>
   <g id="line2d_48">
    <path d="M 97.58308 328.456478 
L 113.708516 328.456478 
L 116.933603 328.817156 
L 120.15869 323.119417 
L 123.383777 319.559779 
L 126.608864 327.146336 
L 129.833951 326.746038 
L 133.059039 326.035719 
L 136.284126 317.240192 
L 139.509213 321.023115 
L 142.7343 320.498205 
L 145.959387 324.858672 
L 149.184474 318.820762 
L 152.409561 319.832415 
L 155.634648 325.039113 
L 158.859735 319.728165 
L 162.084823 315.81787 
L 165.30991 315.862719 
L 168.534997 317.288091 
L 171.760084 316.190893 
L 174.985171 320.169594 
L 178.210258 318.016767 
L 181.435345 317.508645 
L 184.660432 318.298059 
L 187.885519 321.373772 
L 191.110606 318.960101 
L 194.335694 320.657586 
L 197.560781 315.667697 
L 200.785868 318.23645 
L 204.010955 319.236775 
L 207.236042 317.677235 
L 210.461129 312.896979 
L 213.686216 316.193159 
L 216.911303 312.327393 
L 220.13639 310.593832 
L 223.361478 309.643875 
L 226.586565 316.383737 
L 229.811652 310.201986 
L 233.036739 317.377149 
L 236.261826 315.900887 
L 239.486913 315.044026 
L 242.712 315.691021 
L 245.937087 314.585778 
L 249.162174 315.277419 
L 252.387262 314.286593 
L 255.612349 315.596822 
L 258.837436 313.78768 
L 262.062523 316.780957 
L 265.28761 313.614297 
L 268.512697 315.114552 
L 271.737784 309.703973 
L 274.962871 312.436785 
L 278.187958 312.445209 
L 281.413046 312.922772 
L 284.638133 291.02702 
L 287.86322 294.569782 
L 291.088307 310.80422 
L 294.313394 304.914945 
L 297.538481 310.989134 
L 300.763568 292.721833 
L 303.988655 303.87102 
L 307.213742 312.864649 
L 310.438829 301.314873 
L 313.663917 286.147742 
L 316.889004 300.604613 
L 320.114091 295.377002 
L 323.339178 294.530191 
L 326.564265 281.59568 
L 329.789352 300.767916 
L 333.014439 302.775014 
L 336.239526 290.488283 
L 339.464613 300.81291 
L 342.689701 295.920618 
L 345.914788 289.954223 
L 349.139875 277.927958 
L 352.364962 287.308465 
L 355.590049 296.01569 
L 358.815136 270.670214 
L 362.040223 282.473804 
L 365.26531 264.781374 
L 368.490397 278.938217 
L 371.715485 268.757286 
L 374.940572 273.675371 
L 378.165659 271.549151 
L 381.390746 260.394212 
L 384.615833 275.467608 
L 387.84092 287.887578 
L 391.066007 274.00128 
L 394.291094 284.537282 
L 397.516181 273.099773 
L 400.741269 306.609757 
L 403.966356 272.212616 
L 407.191443 263.007495 
L 410.41653 251.642081 
L 413.641617 260.398105 
L 416.866704 280.777945 
L 420.091791 257.830077 
L 423.316878 248.388106 
L 426.541965 261.190191 
L 429.767052 259.268549 
L 432.99214 249.875115 
L 436.217227 250.244275 
L 439.442314 270.438156 
L 442.667401 253.782389 
L 445.892488 245.54233 
L 449.117575 254.980961 
L 452.342662 266.094391 
L 455.567749 256.980275 
L 458.792836 251.225284 
L 462.017924 249.087125 
L 465.243011 263.206904 
L 468.468098 254.18719 
L 471.693185 247.694199 
L 474.918272 256.421379 
L 478.143359 264.174057 
L 481.368446 247.708345 
L 484.593533 253.255242 
L 487.81862 244.102173 
L 491.043708 253.945489 
L 494.268795 239.984482 
L 497.493882 242.339826 
L 500.718969 273.176748 
L 503.944056 250.285116 
L 507.169143 251.155484 
L 510.39423 240.707145 
L 513.619317 233.063917 
L 516.844404 238.768366 
L 520.069492 242.254486 
L 523.294579 248.486547 
L 526.519666 235.233389 
L 529.744753 242.426271 
L 532.96984 242.484016 
L 536.194927 238.052471 
L 539.420014 236.945281 
L 542.645101 245.039118 
L 545.870188 237.489566 
L 549.095275 236.235486 
L 552.320363 237.555416 
L 555.54545 233.849293 
L 558.770537 238.21374 
L 561.995624 242.248095 
L 565.220711 235.295434 
L 568.445798 232.70048 
L 571.670885 239.885112 
L 574.895972 244.015874 
L 578.121059 240.969238 
L 581.346147 239.959763 
L 584.571234 259.556435 
L 587.796321 238.897451 
L 591.021408 237.135714 
L 594.246495 242.560207 
L 597.471582 228.862396 
L 600.696669 238.743153 
L 603.921756 282.956509 
L 607.146843 252.078369 
L 610.371931 234.451208 
L 613.597018 236.92216 
L 616.822105 230.973715 
L 620.047192 230.237312 
L 623.272279 223.681318 
L 626.497366 237.74399 
L 629.722453 222.503515 
L 632.94754 220.541847 
L 636.172627 226.113521 
L 639.397715 226.151428 
L 642.622802 230.260405 
L 645.847889 225.855292 
L 649.072976 231.406575 
L 652.298063 220.877428 
L 655.52315 232.820386 
L 661.973324 228.801281 
L 665.198411 229.704152 
L 668.423498 224.124606 
L 671.648586 227.848593 
L 678.09876 229.168727 
L 681.323847 230.79066 
L 684.548934 232.563784 
L 687.774021 226.340379 
L 694.224195 233.597658 
L 697.449282 225.799144 
L 700.67437 226.446488 
L 703.899457 225.600927 
L 707.124544 228.148301 
L 710.349631 222.712713 
L 713.574718 234.709815 
L 716.799805 232.086162 
L 720.024892 228.444146 
L 723.249979 212.814701 
L 726.475066 227.423721 
L 729.700154 222.70304 
L 732.925241 217.720674 
L 736.150328 224.781217 
L 739.375415 228.40136 
L 742.600502 223.878403 
L 745.825589 215.75915 
L 749.050676 224.287009 
L 752.275763 228.24619 
L 755.50085 221.960654 
L 758.725937 221.182481 
L 758.725937 221.182481 
" clip-path="url(#pd74a24b9c7)" style="fill: none; stroke: #c44e52; stroke-width: 1.8; stroke-linecap: square"/>
   </g>
   <g id="patch_6">
    <path d="M 64.525938 334.678095 
L 64.525938 207.011683 
" style="fill: none; stroke: #000000; stroke-width: 0.8; stroke-linejoin: miter; stroke-linecap: square"/>
   </g>
   <g id="patch_7">
    <path d="M 64.525938 334.678095 
L 791.78308 334.678095 
" style="fill: none; stroke: #000000; stroke-width: 0.8; stroke-linejoin: miter; stroke-linecap: square"/>
   </g>
  </g>
  <g id="axes_3">
   <g id="patch_8">
    <path d="M 64.525938 477.609777 
L 791.78308 477.609777 
L 791.78308 349.943365 
L 64.525938 349.943365 
z
" style="fill: #ffffff"/>
   </g>
   <g id="matplotlib.axis_5">
    <g id="xtick_13">
     <g id="line2d_49">
      <path d="M 97.58308 477.609777 
L 97.58308 349.943365 
" clip-path="url(#pae1275841e)" style="fill: none; stroke-dasharray: 2.96,1.28; stroke-dashoffset: 0; stroke: #b0b0b0; stroke-opacity: 0.25; stroke-width: 0.8"/>
     </g>
     <g id="line2d_50">
      <g>
       <use xlink:href="#m4aeabb95a5" x="97.58308" y="477.609777" style="stroke: #000000; stroke-width: 0.8"/>
      </g>
     </g>
    </g>
    <g id="xtick_14">
     <g id="line2d_51">
      <path d="M 226.586565 477.609777 
L 226.586565 349.943365 
" clip-path="url(#pae1275841e)" style="fill: none; stroke-dasharray: 2.96,1.28; stroke-dashoffset: 0; stroke: #b0b0b0; stroke-opacity: 0.25; stroke-width: 0.8"/>
     </g>
     <g id="line2d_52">
      <g>
       <use xlink:href="#m4aeabb95a5" x="226.586565" y="477.609777" style="stroke: #000000; stroke-width: 0.8"/>
      </g>
     </g>
    </g>
    <g id="xtick_15">
     <g id="line2d_53">
      <path d="M 355.590049 477.609777 
L 355.590049 349.943365 
" clip-path="url(#pae1275841e)" style="fill: none; stroke-dasharray: 2.96,1.28; stroke-dashoffset: 0; stroke: #b0b0b0; stroke-opacity: 0.25; stroke-width: 0.8"/>
     </g>
     <g id="line2d_54">
      <g>
       <use xlink:href="#m4aeabb95a5" x="355.590049" y="477.609777" style="stroke: #000000; stroke-width: 0.8"/>
      </g>
     </g>
    </g>
    <g id="xtick_16">
     <g id="line2d_55">
      <path d="M 484.593533 477.609777 
L 484.593533 349.943365 
" clip-path="url(#pae1275841e)" style="fill: none; stroke-dasharray: 2.96,1.28; stroke-dashoffset: 0; stroke: #b0b0b0; stroke-opacity: 0.25; stroke-width: 0.8"/>
     </g>
     <g id="line2d_56">
      <g>
       <use xlink:href="#m4aeabb95a5" x="484.593533" y="477.609777" style="stroke: #000000; stroke-width: 0.8"/>
      </g>
     </g>
    </g>
    <g id="xtick_17">
     <g id="line2d_57">
      <path d="M 613.597018 477.609777 
L 613.597018 349.943365 
" clip-path="url(#pae1275841e)" style="fill: none; stroke-dasharray: 2.96,1.28; stroke-dashoffset: 0; stroke: #b0b0b0; stroke-opacity: 0.25; stroke-width: 0.8"/>
     </g>
     <g id="line2d_58">
      <g>
       <use xlink:href="#m4aeabb95a5" x="613.597018" y="477.609777" style="stroke: #000000; stroke-width: 0.8"/>
      </g>
     </g>
    </g>
    <g id="xtick_18">
     <g id="line2d_59">
      <path d="M 742.600502 477.609777 
L 742.600502 349.943365 
" clip-path="url(#pae1275841e)" style="fill: none; stroke-dasharray: 2.96,1.28; stroke-dashoffset: 0; stroke: #b0b0b0; stroke-opacity: 0.25; stroke-width: 0.8"/>
     </g>
     <g id="line2d_60">
      <g>
       <use xlink:href="#m4aeabb95a5" x="742.600502" y="477.609777" style="stroke: #000000; stroke-width: 0.8"/>
      </g>
     </g>
    </g>
   </g>
   <g id="matplotlib.axis_6">
    <g id="ytick_11">
     <g id="line2d_61">
      <path d="M 64.525938 471.476312 
L 791.78308 471.476312 
" clip-path="url(#pae1275841e)" style="fill: none; stroke-dasharray: 2.96,1.28; stroke-dashoffset: 0; stroke: #b0b0b0; stroke-opacity: 0.25; stroke-width: 0.8"/>
     </g>
     <g id="line2d_62">
      <g>
       <use xlink:href="#m86f4e93e74" x="64.525938" y="471.476312" style="stroke: #000000; stroke-width: 0.8"/>
      </g>
     </g>
     <g id="text_13">
      <text style="font-size: 10px; font-family: 'DejaVu Sans'; text-anchor: end" x="57.525938" y="475.275531" transform="rotate(-0 57.525938 475.275531)">0</text>
     </g>
    </g>
    <g id="ytick_12">
     <g id="line2d_63">
      <path d="M 64.525938 446.792147 
L 791.78308 446.792147 
" clip-path="url(#pae1275841e)" style="fill: none; stroke-dasharray: 2.96,1.28; stroke-dashoffset: 0; stroke: #b0b0b0; stroke-opacity: 0.25; stroke-width: 0.8"/>
     </g>
     <g id="line2d_64">
      <g>
       <use xlink:href="#m86f4e93e74" x="64.525938" y="446.792147" style="stroke: #000000; stroke-width: 0.8"/>
      </g>
     </g>
     <g id="text_14">
      <text style="font-size: 10px; font-family: 'DejaVu Sans'; text-anchor: end" x="57.525938" y="450.591366" transform="rotate(-0 57.525938 450.591366)">1000</text>
     </g>
    </g>
    <g id="ytick_13">
     <g id="line2d_65">
      <path d="M 64.525938 422.107983 
L 791.78308 422.107983 
" clip-path="url(#pae1275841e)" style="fill: none; stroke-dasharray: 2.96,1.28; stroke-dashoffset: 0; stroke: #b0b0b0; stroke-opacity: 0.25; stroke-width: 0.8"/>
     </g>
     <g id="line2d_66">
      <g>
       <use xlink:href="#m86f4e93e74" x="64.525938" y="422.107983" style="stroke: #000000; stroke-width: 0.8"/>
      </g>
     </g>
     <g id="text_15">
      <text style="font-size: 10px; font-family: 'DejaVu Sans'; text-anchor: end" x="57.525938" y="425.907202" transform="rotate(-0 57.525938 425.907202)">2000</text>
     </g>
    </g>
    <g id="ytick_14">
     <g id="line2d_67">
      <path d="M 64.525938 397.423819 
L 791.78308 397.423819 
" clip-path="url(#pae1275841e)" style="fill: none; stroke-dasharray: 2.96,1.28; stroke-dashoffset: 0; stroke: #b0b0b0; stroke-opacity: 0.25; stroke-width: 0.8"/>
     </g>
     <g id="line2d_68">
      <g>
       <use xlink:href="#m86f4e93e74" x="64.525938" y="397.423819" style="stroke: #000000; stroke-width: 0.8"/>
      </g>
     </g>
     <g id="text_16">
      <text style="font-size: 10px; font-family: 'DejaVu Sans'; text-anchor: end" x="57.525938" y="401.223037" transform="rotate(-0 57.525938 401.223037)">3000</text>
     </g>
    </g>
    <g id="ytick_15">
     <g id="line2d_69">
      <path d="M 64.525938 372.739654 
L 791.78308 372.739654 
" clip-path="url(#pae1275841e)" style="fill: none; stroke-dasharray: 2.96,1.28; stroke-dashoffset: 0; stroke: #b0b0b0; stroke-opacity: 0.25; stroke-width: 0.8"/>
     </g>
     <g id="line2d_70">
      <g>
       <use xlink:href="#m86f4e93e74" x="64.525938" y="372.739654" style="stroke: #000000; stroke-width: 0.8"/>
      </g>
     </g>
     <g id="text_17">
      <text style="font-size: 10px; font-family: 'DejaVu Sans'; text-anchor: end" x="57.525938" y="376.538873" transform="rotate(-0 57.525938 376.538873)">4000</text>
     </g>
    </g>
    <g id="text_18">
     <text style="font-size: 10px; font-family: 'DejaVu Sans'" transform="translate(14.798438 443.203915) rotate(-90)">seed 33431</text>
     <text style="font-size: 10px; font-family: 'DejaVu Sans'" transform="translate(25.99625 431.091415) rotate(-90)">reward</text>
    </g>
   </g>
   <g id="line2d_71">
    <path d="M 97.58308 471.097089 
L 113.708516 471.097089 
L 116.933603 464.22366 
L 120.15869 471.806759 
L 123.383777 464.041343 
L 126.608864 463.795192 
L 129.833951 467.758432 
L 136.284126 463.867788 
L 139.509213 462.575646 
L 142.7343 471.283652 
L 145.959387 457.210148 
L 149.184474 461.302092 
L 152.409561 462.011613 
L 155.634648 463.560545 
L 158.859735 463.129534 
L 162.084823 463.438926 
L 165.30991 464.850934 
L 168.534997 460.789253 
L 171.760084 456.186743 
L 174.985171 464.36552 
L 178.210258 464.831582 
L 181.435345 465.581561 
L 184.660432 460.534636 
L 187.885519 463.164092 
L 191.110606 462.00759 
L 194.335694 464.483313 
L 197.560781 460.533155 
L 200.785868 461.831295 
L 204.010955 462.825993 
L 207.236042 462.830288 
L 210.461129 461.239739 
L 213.686216 460.630238 
L 216.911303 461.694767 
L 220.13639 462.170258 
L 223.361478 456.513043 
L 226.586565 465.171359 
L 229.811652 463.201538 
L 233.036739 456.872296 
L 236.261826 456.770449 
L 239.486913 457.832658 
L 242.712 457.114028 
L 245.937087 454.296997 
L 249.162174 452.559849 
L 252.387262 446.941215 
L 255.612349 451.372023 
L 258.837436 450.592546 
L 262.062523 437.35196 
L 265.28761 453.376796 
L 268.512697 447.321475 
L 271.737784 442.46647 
L 274.962871 436.367087 
L 278.187958 421.128762 
L 281.413046 414.067882 
L 284.638133 413.260463 
L 287.86322 398.54406 
L 291.088307 402.483949 
L 294.313394 410.712218 
L 297.538481 419.371817 
L 300.763568 414.612908 
L 303.988655 404.884039 
L 307.213742 399.419681 
L 310.438829 409.669978 
L 313.663917 406.784301 
L 316.889004 399.886212 
L 320.114091 402.681299 
L 323.339178 400.368318 
L 326.564265 399.065464 
L 329.789352 414.318821 
L 333.014439 401.593937 
L 336.239526 403.679724 
L 339.464613 407.63978 
L 342.689701 392.72694 
L 345.914788 418.408197 
L 349.139875 396.453089 
L 352.364962 397.554965 
L 355.590049 405.353039 
L 358.815136 397.917921 
L 362.040223 395.154579 
L 365.26531 402.610085 
L 368.490397 401.87815 
L 371.715485 396.622496 
L 374.940572 404.841089 
L 378.165659 399.697847 
L 381.390746 393.135834 
L 384.615833 404.695477 
L 387.84092 399.190045 
L 391.066007 392.755327 
L 394.291094 393.796184 
L 397.516181 396.207309 
L 400.741269 393.227017 
L 403.966356 388.070495 
L 407.191443 390.928526 
L 410.41653 394.830056 
L 413.641617 390.075022 
L 416.866704 394.597506 
L 420.091791 402.036548 
L 423.316878 402.719584 
L 426.541965 400.857929 
L 429.767052 390.532543 
L 432.99214 388.939353 
L 436.217227 387.8102 
L 439.442314 390.333539 
L 442.667401 388.508861 
L 445.892488 390.041674 
L 449.117575 389.36476 
L 452.342662 394.366438 
L 458.792836 393.025545 
L 462.017924 393.022064 
L 465.243011 392.079006 
L 468.468098 389.958661 
L 471.693185 391.646564 
L 474.918272 392.873663 
L 478.143359 386.525316 
L 481.368446 389.9204 
L 484.593533 384.529823 
L 487.81862 392.810274 
L 491.043708 399.219567 
L 494.268795 390.505933 
L 497.493882 387.941051 
L 500.718969 386.937739 
L 503.944056 391.432355 
L 507.169143 391.638073 
L 510.39423 386.412879 
L 513.619317 388.766095 
L 516.844404 392.407034 
L 520.069492 389.288214 
L 526.519666 384.914081 
L 529.744753 385.855289 
L 532.96984 387.558373 
L 539.420014 389.119449 
L 542.645101 382.35579 
L 545.870188 387.229185 
L 549.095275 387.325083 
L 552.320363 389.272688 
L 555.54545 385.54649 
L 558.770537 395.787752 
L 561.995624 426.585814 
L 565.220711 399.255309 
L 568.445798 387.224297 
L 571.670885 390.8876 
L 574.895972 384.344075 
L 578.121059 390.187409 
L 581.346147 384.538314 
L 584.571234 392.027441 
L 587.796321 388.132674 
L 591.021408 387.778481 
L 594.246495 386.035434 
L 597.471582 389.88641 
L 600.696669 387.812249 
L 603.921756 388.427872 
L 607.146843 386.104105 
L 610.371931 385.504749 
L 613.597018 388.959026 
L 616.822105 383.916372 
L 620.047192 384.709548 
L 623.272279 386.253074 
L 626.497366 385.395694 
L 629.722453 382.26004 
L 632.94754 385.528421 
L 636.172627 382.728175 
L 639.397715 387.54724 
L 642.622802 386.558935 
L 645.847889 384.316823 
L 649.072976 381.744931 
L 652.298063 383.033395 
L 655.52315 382.317628 
L 658.748237 382.833429 
L 665.198411 381.061797 
L 668.423498 386.684997 
L 671.648586 379.658922 
L 674.873673 382.424091 
L 678.09876 382.309162 
L 681.323847 377.224298 
L 684.548934 377.115885 
L 687.774021 377.682041 
L 690.999108 383.097895 
L 694.224195 382.682707 
L 697.449282 382.153577 
L 700.67437 382.280775 
L 703.899457 378.475242 
L 707.124544 383.183524 
L 710.349631 379.240722 
L 713.574718 380.698791 
L 716.799805 378.98381 
L 720.024892 377.413576 
L 723.249979 380.49685 
L 726.475066 381.163841 
L 729.700154 378.80401 
L 732.925241 382.247846 
L 736.150328 382.940706 
L 739.375415 379.169706 
L 742.600502 379.033203 
L 745.825589 377.586069 
L 749.050676 379.184566 
L 752.275763 374.460288 
L 755.50085 381.808962 
L 758.725937 378.196804 
L 758.725937 378.196804 
" clip-path="url(#pae1275841e)" style="fill: none; stroke: #2f6db3; stroke-width: 1.8; stroke-linecap: square"/>
   </g>
   <g id="line2d_72">
    <path d="M 97.58308 471.097089 
L 113.708516 471.097089 
L 116.933603 464.760639 
L 120.15869 466.656136 
L 123.383777 469.877987 
L 126.608864 464.740003 
L 129.833951 467.047948 
L 133.059039 468.688853 
L 136.284126 464.411556 
L 139.509213 465.305567 
L 142.7343 466.32522 
L 145.959387 463.247944 
L 149.184474 460.880289 
L 152.409561 459.752642 
L 155.634648 460.268887 
L 158.859735 470.060255 
L 162.084823 463.245846 
L 165.30991 463.031662 
L 168.534997 460.201548 
L 171.760084 462.42996 
L 174.985171 461.948792 
L 178.210258 462.178774 
L 181.435345 461.560115 
L 184.660432 458.33113 
L 187.885519 457.742709 
L 191.110606 464.102337 
L 194.335694 458.506166 
L 197.560781 455.94274 
L 200.785868 459.382774 
L 204.010955 459.214675 
L 207.236042 461.947089 
L 210.461129 457.53825 
L 213.686216 452.405425 
L 216.911303 459.036209 
L 220.13639 449.890109 
L 223.361478 455.169188 
L 226.586565 452.800569 
L 229.811652 453.223878 
L 233.036739 452.322091 
L 236.261826 453.194405 
L 239.486913 453.610926 
L 242.712 452.245447 
L 249.162174 452.498509 
L 252.387262 451.681957 
L 255.612349 456.898881 
L 258.837436 452.415373 
L 262.062523 454.876063 
L 265.28761 453.429497 
L 268.512697 452.802223 
L 271.737784 453.205957 
L 274.962871 456.94198 
L 278.187958 452.222417 
L 281.413046 455.634731 
L 284.638133 447.835399 
L 287.86322 453.4703 
L 291.088307 453.713957 
L 294.313394 449.364385 
L 297.538481 451.850031 
L 300.763568 443.699765 
L 303.988655 447.677692 
L 307.213742 438.842193 
L 310.438829 437.658538 
L 313.663917 446.090105 
L 316.889004 431.014104 
L 320.114091 420.887548 
L 323.339178 422.29615 
L 326.564265 439.207247 
L 329.789352 435.836945 
L 333.014439 427.52006 
L 336.239526 435.720214 
L 339.464613 437.295952 
L 342.689701 427.558666 
L 345.914788 426.17934 
L 349.139875 429.653784 
L 352.364962 422.699317 
L 355.590049 410.73863 
L 358.815136 425.456859 
L 362.040223 422.285487 
L 365.26531 408.967541 
L 368.490397 413.639142 
L 371.715485 407.026872 
L 374.940572 395.158948 
L 378.165659 393.784361 
L 381.390746 399.179801 
L 384.615833 406.577423 
L 387.84092 397.944802 
L 391.066007 398.128823 
L 394.291094 398.87621 
L 397.516181 396.310168 
L 400.741269 400.711231 
L 403.966356 387.235109 
L 407.191443 390.708171 
L 410.41653 389.770814 
L 413.641617 382.469954 
L 416.866704 376.731404 
L 420.091791 382.893066 
L 423.316878 387.236565 
L 426.541965 378.852539 
L 429.767052 385.948916 
L 432.99214 386.221947 
L 436.217227 383.32689 
L 439.442314 389.139048 
L 442.667401 382.771471 
L 445.892488 384.259161 
L 449.117575 387.946506 
L 452.342662 380.140115 
L 455.567749 386.308465 
L 458.792836 378.307859 
L 462.017924 419.607625 
L 465.243011 378.836371 
L 468.468098 371.935987 
L 471.693185 369.305322 
L 474.918272 369.425953 
L 478.143359 364.137593 
L 481.368446 374.352073 
L 484.593533 369.050038 
L 487.81862 373.671728 
L 491.043708 378.02404 
L 494.268795 374.223444 
L 497.493882 369.351703 
L 500.718969 382.293339 
L 503.944056 369.635275 
L 507.169143 374.734061 
L 510.39423 384.003927 
L 513.619317 382.683053 
L 516.844404 376.624201 
L 520.069492 362.854313 
L 523.294579 372.429572 
L 526.519666 366.298 
L 529.744753 372.842636 
L 532.96984 357.947545 
L 536.194927 370.235643 
L 539.420014 374.564727 
L 542.645101 361.241499 
L 545.870188 374.352517 
L 549.095275 365.121874 
L 552.320363 374.483072 
L 555.54545 358.634209 
L 558.770537 367.439668 
L 561.995624 366.708523 
L 565.220711 364.365181 
L 568.445798 363.900131 
L 571.670885 364.557249 
L 574.895972 372.080217 
L 578.121059 373.916941 
L 581.346147 376.245595 
L 584.571234 365.767093 
L 587.796321 357.323875 
L 591.021408 365.393277 
L 594.246495 360.335318 
L 597.471582 368.511899 
L 600.696669 369.937212 
L 603.921756 371.72943 
L 607.146843 356.613983 
L 610.371931 364.494329 
L 613.597018 362.88465 
L 616.822105 365.863016 
L 620.047192 370.656632 
L 623.272279 370.737472 
L 626.497366 364.37429 
L 629.722453 363.841309 
L 632.94754 361.529983 
L 636.172627 372.367145 
L 639.397715 368.362559 
L 642.622802 369.430816 
L 645.847889 370.730166 
L 649.072976 369.012024 
L 652.298063 370.52741 
L 655.52315 372.356506 
L 658.748237 356.670312 
L 661.973324 365.569793 
L 665.198411 366.770826 
L 668.423498 374.897272 
L 671.648586 361.079966 
L 674.873673 381.244756 
L 678.09876 363.465591 
L 681.323847 382.677301 
L 684.548934 357.075528 
L 687.774021 360.737201 
L 690.999108 382.887783 
L 694.224195 369.470582 
L 697.449282 372.843328 
L 700.67437 359.632067 
L 703.899457 367.733311 
L 707.124544 362.293168 
L 710.349631 363.29843 
L 713.574718 365.001514 
L 716.799805 360.267462 
L 720.024892 369.918501 
L 723.249979 360.940006 
L 726.475066 378.174268 
L 729.700154 364.298262 
L 732.925241 367.138027 
L 736.150328 360.296293 
L 739.375415 364.605876 
L 742.600502 366.727999 
L 745.825589 355.746384 
L 749.050676 360.342452 
L 752.275763 358.838495 
L 755.50085 361.974372 
L 758.725937 360.941438 
L 758.725937 360.941438 
" clip-path="url(#pae1275841e)" style="fill: none; stroke: #c44e52; stroke-width: 1.8; stroke-linecap: square"/>
   </g>
   <g id="patch_9">
    <path d="M 64.525938 477.609777 
L 64.525938 349.943365 
" style="fill: none; stroke: #000000; stroke-width: 0.8; stroke-linejoin: miter; stroke-linecap: square"/>
   </g>
   <g id="patch_10">
    <path d="M 64.525938 477.609777 
L 791.78308 477.609777 
" style="fill: none; stroke: #000000; stroke-width: 0.8; stroke-linejoin: miter; stroke-linecap: square"/>
   </g>
  </g>
  <g id="axes_4">
   <g id="patch_11">
    <path d="M 64.525938 620.54146 
L 791.78308 620.54146 
L 791.78308 492.875048 
L 64.525938 492.875048 
z
" style="fill: #ffffff"/>
   </g>
   <g id="matplotlib.axis_7">
    <g id="xtick_19">
     <g id="line2d_73">
      <path d="M 97.58308 620.54146 
L 97.58308 492.875048 
" clip-path="url(#p0cc758120e)" style="fill: none; stroke-dasharray: 2.96,1.28; stroke-dashoffset: 0; stroke: #b0b0b0; stroke-opacity: 0.25; stroke-width: 0.8"/>
     </g>
     <g id="line2d_74">
      <g>
       <use xlink:href="#m4aeabb95a5" x="97.58308" y="620.54146" style="stroke: #000000; stroke-width: 0.8"/>
      </g>
     </g>
    </g>
    <g id="xtick_20">
     <g id="line2d_75">
      <path d="M 226.586565 620.54146 
L 226.586565 492.875048 
" clip-path="url(#p0cc758120e)" style="fill: none; stroke-dasharray: 2.96,1.28; stroke-dashoffset: 0; stroke: #b0b0b0; stroke-opacity: 0.25; stroke-width: 0.8"/>
     </g>
     <g id="line2d_76">
      <g>
       <use xlink:href="#m4aeabb95a5" x="226.586565" y="620.54146" style="stroke: #000000; stroke-width: 0.8"/>
      </g>
     </g>
    </g>
    <g id="xtick_21">
     <g id="line2d_77">
      <path d="M 355.590049 620.54146 
L 355.590049 492.875048 
" clip-path="url(#p0cc758120e)" style="fill: none; stroke-dasharray: 2.96,1.28; stroke-dashoffset: 0; stroke: #b0b0b0; stroke-opacity: 0.25; stroke-width: 0.8"/>
     </g>
     <g id="line2d_78">
      <g>
       <use xlink:href="#m4aeabb95a5" x="355.590049" y="620.54146" style="stroke: #000000; stroke-width: 0.8"/>
      </g>
     </g>
    </g>
    <g id="xtick_22">
     <g id="line2d_79">
      <path d="M 484.593533 620.54146 
L 484.593533 492.875048 
" clip-path="url(#p0cc758120e)" style="fill: none; stroke-dasharray: 2.96,1.28; stroke-dashoffset: 0; stroke: #b0b0b0; stroke-opacity: 0.25; stroke-width: 0.8"/>
     </g>
     <g id="line2d_80">
      <g>
       <use xlink:href="#m4aeabb95a5" x="484.593533" y="620.54146" style="stroke: #000000; stroke-width: 0.8"/>
      </g>
     </g>
    </g>
    <g id="xtick_23">
     <g id="line2d_81">
      <path d="M 613.597018 620.54146 
L 613.597018 492.875048 
" clip-path="url(#p0cc758120e)" style="fill: none; stroke-dasharray: 2.96,1.28; stroke-dashoffset: 0; stroke: #b0b0b0; stroke-opacity: 0.25; stroke-width: 0.8"/>
     </g>
     <g id="line2d_82">
      <g>
       <use xlink:href="#m4aeabb95a5" x="613.597018" y="620.54146" style="stroke: #000000; stroke-width: 0.8"/>
      </g>
     </g>
    </g>
    <g id="xtick_24">
     <g id="line2d_83">
      <path d="M 742.600502 620.54146 
L 742.600502 492.875048 
" clip-path="url(#p0cc758120e)" style="fill: none; stroke-dasharray: 2.96,1.28; stroke-dashoffset: 0; stroke: #b0b0b0; stroke-opacity: 0.25; stroke-width: 0.8"/>
     </g>
     <g id="line2d_84">
      <g>
       <use xlink:href="#m4aeabb95a5" x="742.600502" y="620.54146" style="stroke: #000000; stroke-width: 0.8"/>
      </g>
     </g>
    </g>
   </g>
   <g id="matplotlib.axis_8">
    <g id="ytick_16">
     <g id="line2d_85">
      <path d="M 64.525938 614.373085 
L 791.78308 614.373085 
" clip-path="url(#p0cc758120e)" style="fill: none; stroke-dasharray: 2.96,1.28; stroke-dashoffset: 0; stroke: #b0b0b0; stroke-opacity: 0.25; stroke-width: 0.8"/>
     </g>
     <g id="line2d_86">
      <g>
       <use xlink:href="#m86f4e93e74" x="64.525938" y="614.373085" style="stroke: #000000; stroke-width: 0.8"/>
      </g>
     </g>
     <g id="text_19">
      <text style="font-size: 10px; font-family: 'DejaVu Sans'; text-anchor: end" x="57.525938" y="618.172303" transform="rotate(-0 57.525938 618.172303)">0</text>
     </g>
    </g>
    <g id="ytick_17">
     <g id="line2d_87">
      <path d="M 64.525938 591.060378 
L 791.78308 591.060378 
" clip-path="url(#p0cc758120e)" style="fill: none; stroke-dasharray: 2.96,1.28; stroke-dashoffset: 0; stroke: #b0b0b0; stroke-opacity: 0.25; stroke-width: 0.8"/>
     </g>
     <g id="line2d_88">
      <g>
       <use xlink:href="#m86f4e93e74" x="64.525938" y="591.060378" style="stroke: #000000; stroke-width: 0.8"/>
      </g>
     </g>
     <g id="text_20">
      <text style="font-size: 10px; font-family: 'DejaVu Sans'; text-anchor: end" x="57.525938" y="594.859597" transform="rotate(-0 57.525938 594.859597)">1000</text>
     </g>
    </g>
    <g id="ytick_18">
     <g id="line2d_89">
      <path d="M 64.525938 567.747672 
L 791.78308 567.747672 
" clip-path="url(#p0cc758120e)" style="fill: none; stroke-dasharray: 2.96,1.28; stroke-dashoffset: 0; stroke: #b0b0b0; stroke-opacity: 0.25; stroke-width: 0.8"/>
     </g>
     <g id="line2d_90">
      <g>
       <use xlink:href="#m86f4e93e74" x="64.525938" y="567.747672" style="stroke: #000000; stroke-width: 0.8"/>
      </g>
     </g>
     <g id="text_21">
      <text style="font-size: 10px; font-family: 'DejaVu Sans'; text-anchor: end" x="57.525938" y="571.54689" transform="rotate(-0 57.525938 571.54689)">2000</text>
     </g>
    </g>
    <g id="ytick_19">
     <g id="line2d_91">
      <path d="M 64.525938 544.434965 
L 791.78308 544.434965 
" clip-path="url(#p0cc758120e)" style="fill: none; stroke-dasharray: 2.96,1.28; stroke-dashoffset: 0; stroke: #b0b0b0; stroke-opacity: 0.25; stroke-width: 0.8"/>
     </g>
     <g id="line2d_92">
      <g>
       <use xlink:href="#m86f4e93e74" x="64.525938" y="544.434965" style="stroke: #000000; stroke-width: 0.8"/>
      </g>
     </g>
     <g id="text_22">
      <text style="font-size: 10px; font-family: 'DejaVu Sans'; text-anchor: end" x="57.525938" y="548.234184" transform="rotate(-0 57.525938 548.234184)">3000</text>
     </g>
    </g>
    <g id="ytick_20">
     <g id="line2d_93">
      <path d="M 64.525938 521.122259 
L 791.78308 521.122259 
" clip-path="url(#p0cc758120e)" style="fill: none; stroke-dasharray: 2.96,1.28; stroke-dashoffset: 0; stroke: #b0b0b0; stroke-opacity: 0.25; stroke-width: 0.8"/>
     </g>
     <g id="line2d_94">
      <g>
       <use xlink:href="#m86f4e93e74" x="64.525938" y="521.122259" style="stroke: #000000; stroke-width: 0.8"/>
      </g>
     </g>
     <g id="text_23">
      <text style="font-size: 10px; font-family: 'DejaVu Sans'; text-anchor: end" x="57.525938" y="524.921477" transform="rotate(-0 57.525938 524.921477)">4000</text>
     </g>
    </g>
    <g id="ytick_21">
     <g id="line2d_95">
      <path d="M 64.525938 497.809552 
L 791.78308 497.809552 
" clip-path="url(#p0cc758120e)" style="fill: none; stroke-dasharray: 2.96,1.28; stroke-dashoffset: 0; stroke: #b0b0b0; stroke-opacity: 0.25; stroke-width: 0.8"/>
     </g>
     <g id="line2d_96">
      <g>
       <use xlink:href="#m86f4e93e74" x="64.525938" y="497.809552" style="stroke: #000000; stroke-width: 0.8"/>
      </g>
     </g>
     <g id="text_24">
      <text style="font-size: 10px; font-family: 'DejaVu Sans'; text-anchor: end" x="57.525938" y="501.608771" transform="rotate(-0 57.525938 501.608771)">5000</text>
     </g>
    </g>
    <g id="text_25">
     <text style="font-size: 10px; font-family: 'DejaVu Sans'" transform="translate(14.798438 586.135598) rotate(-90)">seed 75183</text>
     <text style="font-size: 10px; font-family: 'DejaVu Sans'" transform="translate(25.99625 574.023098) rotate(-90)">reward</text>
    </g>
   </g>
   <g id="line2d_97">
    <path d="M 97.58308 614.204021 
L 113.708516 614.204021 
L 116.933603 609.366937 
L 120.15869 611.522896 
L 123.383777 609.690378 
L 126.608864 611.073847 
L 129.833951 608.35407 
L 133.059039 609.18659 
L 136.284126 607.022378 
L 139.509213 606.617227 
L 142.7343 607.091547 
L 145.959387 610.453916 
L 149.184474 608.641866 
L 152.409561 605.926098 
L 155.634648 606.179717 
L 158.859735 605.410235 
L 162.084823 605.803217 
L 165.30991 608.708633 
L 168.534997 607.275648 
L 171.760084 606.748478 
L 174.985171 604.840752 
L 178.210258 607.149503 
L 181.435345 607.535398 
L 184.660432 607.655552 
L 187.885519 604.900269 
L 191.110606 592.416711 
L 194.335694 601.499389 
L 197.560781 602.657937 
L 200.785868 608.208972 
L 204.010955 606.060426 
L 207.236042 601.148486 
L 210.461129 601.33606 
L 213.686216 600.265727 
L 216.911303 596.252444 
L 220.13639 594.608712 
L 223.361478 598.993576 
L 226.586565 589.2836 
L 229.811652 586.504306 
L 233.036739 585.371658 
L 236.261826 597.762315 
L 239.486913 593.134906 
L 242.712 585.592966 
L 245.937087 599.789728 
L 249.162174 597.79022 
L 252.387262 603.239519 
L 258.837436 593.798595 
L 262.062523 578.774255 
L 265.28761 593.311337 
L 268.512697 577.567869 
L 271.737784 576.950036 
L 274.962871 584.830617 
L 278.187958 551.978794 
L 281.413046 571.588114 
L 284.638133 541.734398 
L 287.86322 569.257029 
L 291.088307 559.33309 
L 294.313394 537.546666 
L 297.538481 538.095378 
L 300.763568 539.734587 
L 303.988655 549.205701 
L 307.213742 535.250318 
L 310.438829 535.625676 
L 313.663917 530.771178 
L 316.889004 534.336017 
L 320.114091 541.963305 
L 323.339178 570.417373 
L 326.564265 543.173748 
L 329.789352 526.821632 
L 333.014439 529.711592 
L 336.239526 531.732058 
L 339.464613 524.908452 
L 342.689701 521.763544 
L 345.914788 524.850123 
L 349.139875 529.862169 
L 352.364962 534.262769 
L 355.590049 524.989743 
L 358.815136 525.992166 
L 362.040223 523.881457 
L 365.26531 524.81224 
L 368.490397 519.539675 
L 371.715485 527.55948 
L 374.940572 523.176784 
L 378.165659 527.637997 
L 381.390746 523.479709 
L 384.615833 524.057328 
L 387.84092 527.820069 
L 391.066007 518.173901 
L 394.291094 520.309041 
L 397.516181 521.79096 
L 400.741269 518.676429 
L 403.966356 517.249249 
L 407.191443 520.47223 
L 410.41653 518.330072 
L 413.641617 534.856054 
L 416.866704 522.651945 
L 420.091791 520.046004 
L 423.316878 516.129283 
L 426.541965 515.195096 
L 432.99214 521.573453 
L 436.217227 517.153597 
L 439.442314 517.673517 
L 442.667401 521.22938 
L 445.892488 518.308788 
L 449.117575 518.664703 
L 452.342662 514.096298 
L 455.567749 512.080961 
L 458.792836 521.097337 
L 462.017924 511.426084 
L 465.243011 513.085436 
L 468.468098 510.497866 
L 471.693185 532.074265 
L 474.918272 516.754436 
L 478.143359 514.279863 
L 481.368446 513.929403 
L 484.593533 517.970684 
L 487.81862 509.458026 
L 491.043708 510.726773 
L 494.268795 516.016333 
L 497.493882 514.67844 
L 500.718969 509.477189 
L 503.944056 511.474738 
L 507.169143 509.323348 
L 510.39423 515.126044 
L 513.619317 509.13307 
L 516.844404 509.733908 
L 520.069492 509.696351 
L 523.294579 513.887929 
L 526.519666 509.896654 
L 529.744753 509.992516 
L 532.96984 514.357121 
L 536.194927 511.260308 
L 539.420014 514.044661 
L 542.645101 520.601103 
L 545.870188 519.177443 
L 549.095275 513.274875 
L 552.320363 510.236577 
L 555.54545 509.03152 
L 558.770537 512.07539 
L 561.995624 517.45109 
L 565.220711 511.121247 
L 568.445798 511.586546 
L 571.670885 512.285694 
L 574.895972 523.403244 
L 578.121059 512.543346 
L 581.346147 508.999954 
L 584.571234 519.805907 
L 587.796321 515.580059 
L 591.021408 523.432454 
L 594.246495 515.25909 
L 597.471582 515.631067 
L 600.696669 510.865414 
L 603.921756 509.966872 
L 607.146843 514.688581 
L 610.371931 512.524113 
L 613.597018 513.090588 
L 616.822105 510.253175 
L 620.047192 515.271772 
L 623.272279 522.170071 
L 626.497366 510.904439 
L 629.722453 512.324603 
L 632.94754 508.808254 
L 636.172627 510.276045 
L 639.397715 509.909429 
L 642.622802 509.891922 
L 645.847889 514.259371 
L 649.072976 510.186315 
L 652.298063 507.898615 
L 655.52315 513.953904 
L 658.748237 508.413919 
L 661.973324 511.90889 
L 665.198411 511.230001 
L 668.423498 511.429674 
L 671.648586 518.075055 
L 674.873673 508.38359 
L 678.09876 512.336865 
L 681.323847 511.756845 
L 684.548934 514.296158 
L 687.774021 514.633237 
L 690.999108 509.19303 
L 694.224195 508.345613 
L 697.449282 510.478633 
L 700.67437 510.030795 
L 703.899457 511.194752 
L 707.124544 506.673976 
L 710.349631 511.480916 
L 713.574718 508.614199 
L 716.799805 509.260194 
L 720.024892 506.787858 
L 723.249979 512.536515 
L 726.475066 508.42884 
L 729.700154 507.671969 
L 732.925241 510.362395 
L 736.150328 508.493952 
L 739.375415 507.746383 
L 742.600502 508.766827 
L 745.825589 508.631217 
L 749.050676 509.908217 
L 752.275763 508.919362 
L 755.50085 510.806806 
L 758.725937 505.260176 
L 758.725937 505.260176 
" clip-path="url(#p0cc758120e)" style="fill: none; stroke: #2f6db3; stroke-width: 1.8; stroke-linecap: square"/>
   </g>
   <g id="line2d_98">
    <path d="M 97.58308 614.204021 
L 113.708516 614.204021 
L 116.933603 614.738441 
L 120.15869 607.712435 
L 123.383777 608.996732 
L 126.608864 612.356116 
L 129.833951 594.43389 
L 133.059039 606.999112 
L 136.284126 611.084105 
L 139.509213 608.738916 
L 142.7343 607.890357 
L 145.959387 609.680283 
L 149.184474 607.613472 
L 152.409561 608.854361 
L 155.634648 605.021472 
L 162.084823 607.372232 
L 165.30991 608.345421 
L 168.534997 606.420608 
L 171.760084 609.172906 
L 174.985171 608.62965 
L 178.210258 600.705777 
L 181.435345 605.445577 
L 184.660432 604.561279 
L 187.885519 601.541305 
L 191.110606 603.877285 
L 194.335694 605.679613 
L 197.560781 601.786554 
L 200.785868 601.796369 
L 204.010955 605.151417 
L 207.236042 603.172285 
L 210.461129 601.834532 
L 213.686216 601.353451 
L 216.911303 601.437656 
L 220.13639 594.716906 
L 223.361478 598.664727 
L 226.586565 601.609867 
L 229.811652 600.564479 
L 233.036739 603.20096 
L 236.261826 603.804596 
L 239.486913 600.027681 
L 242.712 600.999611 
L 245.937087 600.527645 
L 249.162174 600.930465 
L 252.387262 605.676256 
L 255.612349 604.480478 
L 258.837436 604.721135 
L 262.062523 603.876585 
L 265.28761 597.042605 
L 268.512697 601.046003 
L 271.737784 600.871251 
L 274.962871 599.842764 
L 278.187958 585.731886 
L 281.413046 592.214497 
L 284.638133 595.929517 
L 287.86322 592.729148 
L 291.088307 593.265504 
L 294.313394 587.621311 
L 297.538481 579.152737 
L 300.763568 589.730435 
L 303.988655 579.625402 
L 307.213742 580.425914 
L 310.438829 542.407482 
L 313.663917 578.798384 
L 316.889004 561.872636 
L 320.114091 584.196022 
L 323.339178 569.672159 
L 326.564265 539.529622 
L 329.789352 566.399544 
L 333.014439 543.03196 
L 336.239526 591.121131 
L 339.464613 544.268582 
L 342.689701 561.839439 
L 345.914788 554.230568 
L 349.139875 550.100186 
L 352.364962 561.016431 
L 355.590049 541.233524 
L 358.815136 532.864752 
L 362.040223 533.068295 
L 365.26531 550.12893 
L 368.490397 563.466223 
L 371.715485 574.370415 
L 374.940572 558.702901 
L 378.165659 579.920821 
L 381.390746 543.782023 
L 384.615833 538.524122 
L 387.84092 537.588676 
L 391.066007 532.488928 
L 394.291094 542.515187 
L 397.516181 522.715216 
L 400.741269 551.916875 
L 403.966356 540.648562 
L 407.191443 554.193804 
L 410.41653 577.924787 
L 413.641617 513.575189 
L 416.866704 532.661116 
L 420.091791 530.494479 
L 423.316878 532.919957 
L 426.541965 528.762019 
L 429.767052 535.471952 
L 432.99214 536.692535 
L 436.217227 531.21011 
L 439.442314 529.368732 
L 442.667401 526.095698 
L 445.892488 518.564179 
L 449.117575 520.867497 
L 452.342662 537.238379 
L 455.567749 522.764685 
L 458.792836 523.744472 
L 462.017924 525.545238 
L 465.243011 514.213072 
L 471.693185 534.391758 
L 474.918272 519.514544 
L 478.143359 514.278977 
L 481.368446 515.765372 
L 484.593533 531.815611 
L 487.81862 544.442682 
L 491.043708 521.735173 
L 494.268795 518.823509 
L 497.493882 526.993261 
L 500.718969 513.482545 
L 503.944056 527.299217 
L 507.169143 526.974354 
L 510.39423 510.916748 
L 513.619317 526.401607 
L 516.844404 513.161179 
L 520.069492 518.596047 
L 523.294579 518.534758 
L 526.519666 518.042487 
L 529.744753 511.090381 
L 532.96984 523.497077 
L 536.194927 515.340497 
L 539.420014 510.851123 
L 542.645101 516.944458 
L 545.870188 514.103479 
L 549.095275 513.936723 
L 552.320363 530.070701 
L 555.54545 514.861281 
L 558.770537 516.964484 
L 561.995624 513.77386 
L 565.220711 521.21087 
L 568.445798 527.875134 
L 571.670885 516.328257 
L 574.895972 510.069448 
L 578.121059 545.211908 
L 581.346147 515.264451 
L 584.571234 520.467288 
L 587.796321 510.023662 
L 591.021408 515.101985 
L 594.246495 523.660453 
L 597.471582 530.600156 
L 600.696669 514.993721 
L 603.921756 510.890918 
L 607.146843 519.649385 
L 610.371931 520.980517 
L 613.597018 514.551526 
L 616.822105 512.638182 
L 620.047192 512.006641 
L 623.272279 508.548317 
L 626.497366 507.692228 
L 629.722453 508.082949 
L 632.94754 524.487308 
L 636.172627 508.382867 
L 639.397715 515.336091 
L 642.622802 514.010368 
L 645.847889 527.083015 
L 649.072976 510.039841 
L 652.298063 510.053246 
L 655.52315 506.000868 
L 658.748237 514.238949 
L 661.973324 523.844134 
L 665.198411 498.678067 
L 668.423498 499.739448 
L 671.648586 503.471392 
L 674.873673 516.099769 
L 678.09876 524.112999 
L 681.323847 512.418669 
L 684.548934 505.61798 
L 687.774021 500.203697 
L 690.999108 504.820429 
L 694.224195 523.442013 
L 697.449282 508.297775 
L 700.67437 509.507728 
L 703.899457 517.658806 
L 707.124544 505.831734 
L 710.349631 501.546439 
L 713.574718 499.629179 
L 716.799805 503.298062 
L 720.024892 502.437171 
L 723.249979 503.780892 
L 726.475066 510.591536 
L 729.700154 501.743361 
L 732.925241 509.509127 
L 736.150328 504.887919 
L 739.375415 503.826422 
L 742.600502 503.359934 
L 745.825589 503.357976 
L 749.050676 519.448733 
L 752.275763 504.880226 
L 755.50085 524.228956 
L 758.725937 508.548667 
L 758.725937 508.548667 
" clip-path="url(#p0cc758120e)" style="fill: none; stroke: #c44e52; stroke-width: 1.8; stroke-linecap: square"/>
   </g>
   <g id="patch_12">
    <path d="M 64.525938 620.54146 
L 64.525938 492.875048 
" style="fill: none; stroke: #000000; stroke-width: 0.8; stroke-linejoin: miter; stroke-linecap: square"/>
   </g>
   <g id="patch_13">
    <path d="M 64.525938 620.54146 
L 791.78308 620.54146 
" style="fill: none; stroke: #000000; stroke-width: 0.8; stroke-linejoin: miter; stroke-linecap: square"/>
   </g>
  </g>
  <g id="axes_5">
   <g id="patch_14">
    <path d="M 64.525938 763.473143 
L 791.78308 763.473143 
L 791.78308 635.806731 
L 64.525938 635.806731 
z
" style="fill: #ffffff"/>
   </g>
   <g id="matplotlib.axis_9">
    <g id="xtick_25">
     <g id="line2d_99">
      <path d="M 97.58308 763.473143 
L 97.58308 635.806731 
" clip-path="url(#p4e0614ac5b)" style="fill: none; stroke-dasharray: 2.96,1.28; stroke-dashoffset: 0; stroke: #b0b0b0; stroke-opacity: 0.25; stroke-width: 0.8"/>
     </g>
     <g id="line2d_100">
      <g>
       <use xlink:href="#m4aeabb95a5" x="97.58308" y="763.473143" style="stroke: #000000; stroke-width: 0.8"/>
      </g>
     </g>
     <g id="text_26">
      <text style="font-size: 10px; font-family: 'DejaVu Sans'; text-anchor: middle" x="97.58308" y="778.07158" transform="rotate(-0 97.58308 778.07158)">0.0</text>
     </g>
    </g>
    <g id="xtick_26">
     <g id="line2d_101">
      <path d="M 226.586565 763.473143 
L 226.586565 635.806731 
" clip-path="url(#p4e0614ac5b)" style="fill: none; stroke-dasharray: 2.96,1.28; stroke-dashoffset: 0; stroke: #b0b0b0; stroke-opacity: 0.25; stroke-width: 0.8"/>
     </g>
     <g id="line2d_102">
      <g>
       <use xlink:href="#m4aeabb95a5" x="226.586565" y="763.473143" style="stroke: #000000; stroke-width: 0.8"/>
      </g>
     </g>
     <g id="text_27">
      <text style="font-size: 10px; font-family: 'DejaVu Sans'; text-anchor: middle" x="226.586565" y="778.07158" transform="rotate(-0 226.586565 778.07158)">0.2</text>
     </g>
    </g>
    <g id="xtick_27">
     <g id="line2d_103">
      <path d="M 355.590049 763.473143 
L 355.590049 635.806731 
" clip-path="url(#p4e0614ac5b)" style="fill: none; stroke-dasharray: 2.96,1.28; stroke-dashoffset: 0; stroke: #b0b0b0; stroke-opacity: 0.25; stroke-width: 0.8"/>
     </g>
     <g id="line2d_104">
      <g>
       <use xlink:href="#m4aeabb95a5" x="355.590049" y="763.473143" style="stroke: #000000; stroke-width: 0.8"/>
      </g>
     </g>
     <g id="text_28">
      <text style="font-size: 10px; font-family: 'DejaVu Sans'; text-anchor: middle" x="355.590049" y="778.07158" transform="rotate(-0 355.590049 778.07158)">0.4</text>
     </g>
    </g>
    <g id="xtick_28">
     <g id="line2d_105">
      <path d="M 484.593533 763.473143 
L 484.593533 635.806731 
" clip-path="url(#p4e0614ac5b)" style="fill: none; stroke-dasharray: 2.96,1.28; stroke-dashoffset: 0; stroke: #b0b0b0; stroke-opacity: 0.25; stroke-width: 0.8"/>
     </g>
     <g id="line2d_106">
      <g>
       <use xlink:href="#m4aeabb95a5" x="484.593533" y="763.473143" style="stroke: #000000; stroke-width: 0.8"/>
      </g>
     </g>
     <g id="text_29">
      <text style="font-size: 10px; font-family: 'DejaVu Sans'; text-anchor: middle" x="484.593533" y="778.07158" transform="rotate(-0 484.593533 778.07158)">0.6</text>
     </g>
    </g>
    <g id="xtick_29">
     <g id="line2d_107">
      <path d="M 613.597018 763.473143 
L 613.597018 635.806731 
" clip-path="url(#p4e0614ac5b)" style="fill: none; stroke-dasharray: 2.96,1.28; stroke-dashoffset: 0; stroke: #b0b0b0; stroke-opacity: 0.25; stroke-width: 0.8"/>
     </g>
     <g id="line2d_108">
      <g>
       <use xlink:href="#m4aeabb95a5" x="613.597018" y="763.473143" style="stroke: #000000; stroke-width: 0.8"/>
      </g>
     </g>
     <g id="text_30">
      <text style="font-size: 10px; font-family: 'DejaVu Sans'; text-anchor: middle" x="613.597018" y="778.07158" transform="rotate(-0 613.597018 778.07158)">0.8</text>
     </g>
    </g>
    <g id="xtick_30">
     <g id="line2d_109">
      <path d="M 742.600502 763.473143 
L 742.600502 635.806731 
" clip-path="url(#p4e0614ac5b)" style="fill: none; stroke-dasharray: 2.96,1.28; stroke-dashoffset: 0; stroke: #b0b0b0; stroke-opacity: 0.25; stroke-width: 0.8"/>
     </g>
     <g id="line2d_110">
      <g>
       <use xlink:href="#m4aeabb95a5" x="742.600502" y="763.473143" style="stroke: #000000; stroke-width: 0.8"/>
      </g>
     </g>
     <g id="text_31">
      <text style="font-size: 10px; font-family: 'DejaVu Sans'; text-anchor: middle" x="742.600502" y="778.07158" transform="rotate(-0 742.600502 778.07158)">1.0</text>
     </g>
    </g>
    <g id="text_32">
     <text style="font-size: 10px; font-family: 'DejaVu Sans'; text-anchor: middle" x="428.154509" y="791.749705" transform="rotate(-0 428.154509 791.749705)">Env steps (M)</text>
    </g>
   </g>
   <g id="matplotlib.axis_10">
    <g id="ytick_22">
     <g id="line2d_111">
      <path d="M 64.525938 756.307194 
L 791.78308 756.307194 
" clip-path="url(#p4e0614ac5b)" style="fill: none; stroke-dasharray: 2.96,1.28; stroke-dashoffset: 0; stroke: #b0b0b0; stroke-opacity: 0.25; stroke-width: 0.8"/>
     </g>
     <g id="line2d_112">
      <g>
       <use xlink:href="#m86f4e93e74" x="64.525938" y="756.307194" style="stroke: #000000; stroke-width: 0.8"/>
      </g>
     </g>
     <g id="text_33">
      <text style="font-size: 10px; font-family: 'DejaVu Sans'; text-anchor: end" x="57.525938" y="760.106412" transform="rotate(-0 57.525938 760.106412)">0</text>
     </g>
    </g>
    <g id="ytick_23">
     <g id="line2d_113">
      <path d="M 64.525938 717.250266 
L 791.78308 717.250266 
" clip-path="url(#p4e0614ac5b)" style="fill: none; stroke-dasharray: 2.96,1.28; stroke-dashoffset: 0; stroke: #b0b0b0; stroke-opacity: 0.25; stroke-width: 0.8"/>
     </g>
     <g id="line2d_114">
      <g>
       <use xlink:href="#m86f4e93e74" x="64.525938" y="717.250266" style="stroke: #000000; stroke-width: 0.8"/>
      </g>
     </g>
     <g id="text_34">
      <text style="font-size: 10px; font-family: 'DejaVu Sans'; text-anchor: end" x="57.525938" y="721.049485" transform="rotate(-0 57.525938 721.049485)">2000</text>
     </g>
    </g>
    <g id="ytick_24">
     <g id="line2d_115">
      <path d="M 64.525938 678.193339 
L 791.78308 678.193339 
" clip-path="url(#p4e0614ac5b)" style="fill: none; stroke-dasharray: 2.96,1.28; stroke-dashoffset: 0; stroke: #b0b0b0; stroke-opacity: 0.25; stroke-width: 0.8"/>
     </g>
     <g id="line2d_116">
      <g>
       <use xlink:href="#m86f4e93e74" x="64.525938" y="678.193339" style="stroke: #000000; stroke-width: 0.8"/>
      </g>
     </g>
     <g id="text_35">
      <text style="font-size: 10px; font-family: 'DejaVu Sans'; text-anchor: end" x="57.525938" y="681.992557" transform="rotate(-0 57.525938 681.992557)">4000</text>
     </g>
    </g>
    <g id="ytick_25">
     <g id="line2d_117">
      <path d="M 64.525938 639.136411 
L 791.78308 639.136411 
" clip-path="url(#p4e0614ac5b)" style="fill: none; stroke-dasharray: 2.96,1.28; stroke-dashoffset: 0; stroke: #b0b0b0; stroke-opacity: 0.25; stroke-width: 0.8"/>
     </g>
     <g id="line2d_118">
      <g>
       <use xlink:href="#m86f4e93e74" x="64.525938" y="639.136411" style="stroke: #000000; stroke-width: 0.8"/>
      </g>
     </g>
     <g id="text_36">
      <text style="font-size: 10px; font-family: 'DejaVu Sans'; text-anchor: end" x="57.525938" y="642.93563" transform="rotate(-0 57.525938 642.93563)">6000</text>
     </g>
    </g>
    <g id="text_37">
     <text style="font-size: 10px; font-family: 'DejaVu Sans'" transform="translate(14.798438 729.067281) rotate(-90)">seed 95718</text>
     <text style="font-size: 10px; font-family: 'DejaVu Sans'" transform="translate(25.99625 716.954781) rotate(-90)">reward</text>
    </g>
   </g>
   <g id="line2d_119">
    <path d="M 97.58308 756.142842 
L 113.708516 756.142842 
L 116.933603 756.890021 
L 120.15869 752.624028 
L 123.383777 745.641391 
L 126.608864 753.40212 
L 129.833951 746.158524 
L 133.059039 752.278511 
L 136.284126 751.625889 
L 139.509213 752.794531 
L 142.7343 750.514934 
L 145.959387 751.414864 
L 152.409561 748.169546 
L 155.634648 749.774493 
L 158.859735 754.935846 
L 162.084823 748.150779 
L 165.30991 754.067943 
L 168.534997 749.319265 
L 171.760084 752.252713 
L 174.985171 750.483044 
L 178.210258 750.742812 
L 181.435345 744.671901 
L 184.660432 746.194008 
L 187.885519 746.23117 
L 191.110606 737.036154 
L 194.335694 738.856344 
L 197.560781 736.125307 
L 200.785868 736.077365 
L 204.010955 733.684621 
L 207.236042 729.056277 
L 210.461129 710.551124 
L 213.686216 722.112561 
L 216.911303 715.913816 
L 220.13639 734.474 
L 223.361478 724.20404 
L 226.586565 734.915871 
L 229.811652 732.880419 
L 233.036739 719.079517 
L 236.261826 733.611682 
L 239.486913 708.137953 
L 242.712 709.382697 
L 245.937087 720.392259 
L 249.162174 712.920864 
L 252.387262 706.151459 
L 255.612349 711.175781 
L 258.837436 712.473877 
L 262.062523 703.683393 
L 265.28761 706.919357 
L 268.512697 696.711653 
L 271.737784 715.683478 
L 274.962871 732.699878 
L 278.187958 705.323491 
L 281.413046 706.597567 
L 284.638133 706.753658 
L 287.86322 704.703423 
L 291.088307 722.662306 
L 294.313394 695.018985 
L 297.538481 691.494039 
L 300.763568 695.948618 
L 303.988655 698.669675 
L 307.213742 694.253098 
L 310.438829 691.985902 
L 313.663917 691.499214 
L 316.889004 692.098972 
L 320.114091 692.582907 
L 323.339178 692.899736 
L 326.564265 692.409513 
L 329.789352 695.879272 
L 333.014439 690.922831 
L 336.239526 693.659179 
L 339.464613 736.670718 
L 342.689701 691.226752 
L 345.914788 690.755121 
L 349.139875 693.203345 
L 352.364962 692.697968 
L 355.590049 726.17122 
L 358.815136 690.480492 
L 362.040223 695.232958 
L 365.26531 693.965385 
L 368.490397 690.661677 
L 371.715485 696.455616 
L 374.940572 696.379631 
L 378.165659 690.335844 
L 381.390746 693.497522 
L 384.615833 706.067096 
L 387.84092 690.2996 
L 391.066007 689.515083 
L 394.291094 690.053717 
L 397.516181 688.845881 
L 400.741269 692.130256 
L 403.966356 694.995414 
L 407.191443 688.002056 
L 410.41653 687.864068 
L 413.641617 690.606255 
L 416.866704 690.748325 
L 420.091791 688.828599 
L 423.316878 688.47197 
L 426.541965 690.834484 
L 429.767052 686.793791 
L 432.99214 697.784079 
L 436.217227 689.134766 
L 439.442314 692.397855 
L 442.667401 690.856708 
L 445.892488 690.592527 
L 449.117575 696.786018 
L 452.342662 686.930901 
L 455.567749 693.655039 
L 458.792836 685.632785 
L 462.017924 692.009453 
L 465.243011 697.45768 
L 468.468098 692.759503 
L 471.693185 692.419649 
L 474.918272 694.42901 
L 478.143359 688.82895 
L 481.368446 693.13691 
L 484.593533 692.446793 
L 487.81862 696.911469 
L 491.043708 692.42168 
L 494.268795 687.492793 
L 497.493882 685.634211 
L 500.718969 690.709893 
L 503.944056 690.995438 
L 507.169143 687.069514 
L 510.39423 685.606187 
L 513.619317 693.839954 
L 516.844404 697.660756 
L 520.069492 692.986326 
L 523.294579 685.920908 
L 526.519666 685.279535 
L 529.744753 694.268662 
L 532.96984 684.03729 
L 536.194927 684.265187 
L 539.420014 686.995364 
L 542.645101 684.285008 
L 545.870188 687.202639 
L 549.095275 683.900044 
L 552.320363 684.223338 
L 555.54545 685.593669 
L 561.995624 688.876092 
L 565.220711 685.895638 
L 568.445798 683.636859 
L 571.670885 686.038684 
L 574.895972 684.146903 
L 578.121059 686.880908 
L 581.346147 682.561758 
L 584.571234 686.474032 
L 587.796321 687.459224 
L 591.021408 684.576549 
L 594.246495 684.183031 
L 597.471582 685.96805 
L 600.696669 682.937994 
L 603.921756 683.311456 
L 607.146843 683.133981 
L 610.371931 683.980423 
L 613.597018 682.796178 
L 616.822105 684.725746 
L 620.047192 682.470541 
L 623.272279 685.056773 
L 626.497366 682.029959 
L 629.722453 682.458375 
L 632.94754 684.554482 
L 636.172627 684.283407 
L 639.397715 684.856372 
L 642.622802 683.735536 
L 645.847889 682.793151 
L 649.072976 685.930477 
L 652.298063 681.494469 
L 655.52315 683.872333 
L 658.748237 683.67988 
L 661.973324 682.62089 
L 665.198411 688.532371 
L 671.648586 683.299583 
L 674.873673 683.515001 
L 678.09876 682.976797 
L 681.323847 685.05072 
L 684.548934 682.267542 
L 687.774021 684.397414 
L 690.999108 685.4665 
L 694.224195 682.265414 
L 697.449282 682.138694 
L 700.67437 681.01155 
L 703.899457 683.465497 
L 707.124544 683.844232 
L 710.349631 683.774124 
L 713.574718 682.299491 
L 716.799805 686.150231 
L 720.024892 684.044047 
L 726.475066 683.922834 
L 729.700154 684.914782 
L 732.925241 682.905323 
L 736.150328 682.151114 
L 739.375415 683.182666 
L 742.600502 681.354157 
L 745.825589 681.382337 
L 749.050676 683.285952 
L 752.275763 683.110821 
L 755.50085 683.143648 
L 758.725937 683.459208 
L 758.725937 683.459208 
" clip-path="url(#p4e0614ac5b)" style="fill: none; stroke: #2f6db3; stroke-width: 1.8; stroke-linecap: square"/>
   </g>
   <g id="line2d_120">
    <path d="M 97.58308 756.142842 
L 113.708516 756.142842 
L 116.933603 756.95177 
L 120.15869 754.156934 
L 123.383777 751.526704 
L 126.608864 757.670124 
L 129.833951 737.919758 
L 133.059039 754.873726 
L 136.284126 756.521284 
L 139.509213 757.574317 
L 142.7343 752.816793 
L 145.959387 756.648805 
L 149.184474 750.655129 
L 152.409561 757.341636 
L 155.634648 752.101739 
L 158.859735 743.242593 
L 162.084823 751.584196 
L 168.534997 750.008444 
L 171.760084 753.368257 
L 174.985171 753.770349 
L 178.210258 751.840721 
L 181.435345 747.705765 
L 184.660432 752.51254 
L 187.885519 752.199577 
L 191.110606 751.686837 
L 194.335694 747.674695 
L 197.560781 753.024732 
L 200.785868 750.581936 
L 204.010955 750.023305 
L 207.236042 751.082587 
L 210.461129 745.027162 
L 213.686216 747.355756 
L 216.911303 748.173237 
L 220.13639 746.865162 
L 223.361478 748.897079 
L 226.586565 747.102862 
L 229.811652 746.435848 
L 233.036739 745.507914 
L 236.261826 745.153004 
L 239.486913 739.719931 
L 242.712 743.807122 
L 245.937087 748.253792 
L 249.162174 743.241402 
L 252.387262 747.370051 
L 255.612349 753.668 
L 258.837436 735.937619 
L 262.062523 734.390731 
L 265.28761 721.876344 
L 268.512697 717.814033 
L 271.737784 730.115032 
L 274.962871 708.53194 
L 278.187958 701.475368 
L 281.413046 714.752673 
L 284.638133 727.065936 
L 287.86322 709.082623 
L 291.088307 705.600991 
L 294.313394 703.034404 
L 297.538481 702.028571 
L 300.763568 702.258753 
L 303.988655 701.697876 
L 307.213742 698.511221 
L 310.438829 688.616148 
L 313.663917 684.059181 
L 316.889004 681.557683 
L 320.114091 680.077523 
L 323.339178 683.52498 
L 326.564265 694.658001 
L 329.789352 703.591375 
L 333.014439 690.859813 
L 336.239526 689.993881 
L 339.464613 684.838348 
L 342.689701 696.983705 
L 345.914788 695.119244 
L 349.139875 696.057645 
L 352.364962 695.096376 
L 355.590049 701.628706 
L 358.815136 701.22144 
L 362.040223 705.749973 
L 365.26531 694.31473 
L 368.490397 703.15011 
L 371.715485 694.061407 
L 374.940572 679.212119 
L 378.165659 672.238231 
L 381.390746 696.723566 
L 384.615833 673.389903 
L 387.84092 691.53745 
L 391.066007 684.440182 
L 394.291094 679.001407 
L 397.516181 674.641345 
L 400.741269 680.430793 
L 403.966356 693.591474 
L 407.191443 688.941922 
L 410.41653 707.522923 
L 413.641617 709.240667 
L 416.866704 717.148327 
L 420.091791 691.686218 
L 423.316878 696.341823 
L 426.541965 710.752756 
L 429.767052 702.456361 
L 432.99214 699.315286 
L 436.217227 722.74415 
L 439.442314 675.788389 
L 442.667401 692.955822 
L 445.892488 680.659686 
L 449.117575 662.472418 
L 452.342662 663.044055 
L 455.567749 705.637978 
L 458.792836 710.549308 
L 462.017924 689.463215 
L 465.243011 709.778852 
L 468.468098 678.620836 
L 471.693185 688.477984 
L 474.918272 666.141035 
L 478.143359 664.39894 
L 481.368446 679.798266 
L 487.81862 655.195253 
L 491.043708 696.630786 
L 494.268795 695.460816 
L 497.493882 682.869605 
L 500.718969 685.748862 
L 503.944056 671.384935 
L 507.169143 658.333145 
L 510.39423 684.391068 
L 513.619317 659.464194 
L 516.844404 690.771895 
L 520.069492 661.6846 
L 523.294579 662.834358 
L 526.519666 714.994982 
L 529.744753 691.704302 
L 532.96984 672.322067 
L 536.194927 656.818146 
L 539.420014 665.035724 
L 542.645101 678.658292 
L 545.870188 656.001056 
L 549.095275 653.197999 
L 552.320363 662.263424 
L 555.54545 676.865852 
L 558.770537 655.000339 
L 561.995624 655.884842 
L 565.220711 654.756643 
L 568.445798 666.194621 
L 571.670885 684.044437 
L 574.895972 656.90786 
L 578.121059 659.391138 
L 581.346147 673.295776 
L 584.571234 666.750518 
L 587.796321 663.728723 
L 591.021408 647.269821 
L 594.246495 663.841363 
L 597.471582 661.061779 
L 600.696669 665.808172 
L 603.921756 656.870932 
L 607.146843 660.876883 
L 610.371931 666.150311 
L 613.597018 686.238577 
L 616.822105 656.371042 
L 620.047192 659.010411 
L 623.272279 660.556949 
L 626.497366 651.025164 
L 629.722453 657.288157 
L 632.94754 669.965528 
L 636.172627 658.490603 
L 639.397715 657.029014 
L 645.847889 656.897705 
L 649.072976 646.041012 
L 652.298063 677.189204 
L 655.52315 661.223885 
L 658.748237 648.777457 
L 661.973324 661.877952 
L 665.198411 703.951402 
L 668.423498 647.044072 
L 671.648586 684.592211 
L 674.873673 641.60975 
L 678.09876 645.629118 
L 681.323847 647.702884 
L 684.548934 650.693278 
L 687.774021 647.845696 
L 690.999108 650.53041 
L 694.224195 646.962384 
L 697.449282 656.651217 
L 700.67437 651.976513 
L 703.899457 652.626928 
L 707.124544 652.446856 
L 710.349631 646.121743 
L 713.574718 644.212562 
L 716.799805 649.145159 
L 720.024892 646.471458 
L 723.249979 657.199029 
L 726.475066 652.392098 
L 729.700154 645.870196 
L 736.150328 645.621794 
L 739.375415 645.970963 
L 742.600502 642.962818 
L 745.825589 650.510081 
L 749.050676 656.415157 
L 752.275763 648.770661 
L 755.50085 651.150263 
L 758.725937 649.842423 
L 758.725937 649.842423 
" clip-path="url(#p4e0614ac5b)" style="fill: none; stroke: #c44e52; stroke-width: 1.8; stroke-linecap: square"/>
   </g>
   <g id="patch_15">
    <path d="M 64.525938 763.473143 
L 64.525938 635.806731 
" style="fill: none; stroke: #000000; stroke-width: 0.8; stroke-linejoin: miter; stroke-linecap: square"/>
   </g>
   <g id="patch_16">
    <path d="M 64.525938 763.473143 
L 791.78308 763.473143 
" style="fill: none; stroke: #000000; stroke-width: 0.8; stroke-linejoin: miter; stroke-linecap: square"/>
   </g>
  </g>
  <g id="text_38">
   <text style="font-weight: 700; font-size: 15px; font-family: 'DejaVu Sans'; text-anchor: middle" x="399.38308" y="18.597656" transform="rotate(-0 399.38308 18.597656)">Walker2d Learning Curves by Seed</text>
  </g>
  <g id="legend_1">
   <g id="line2d_121">
    <path d="M 344.203259 825.844312 
L 354.203259 825.844312 
L 364.203259 825.844312 
" style="fill: none; stroke: #2f6db3; stroke-width: 1.8; stroke-linecap: square"/>
   </g>
   <g id="text_39">
    <text style="font-size: 10px; font-family: 'DejaVu Sans'; text-anchor: start" x="372.203259" y="829.344312" transform="rotate(-0 372.203259 829.344312)">LIF</text>
   </g>
   <g id="line2d_122">
    <path d="M 406.476696 825.844312 
L 416.476696 825.844312 
L 426.476696 825.844312 
" style="fill: none; stroke: #c44e52; stroke-width: 1.8; stroke-linecap: square"/>
   </g>
   <g id="text_40">
    <text style="font-size: 10px; font-family: 'DejaVu Sans'; text-anchor: start" x="434.476696" y="829.344312" transform="rotate(-0 434.476696 829.344312)">PLIF</text>
   </g>
  </g>
 </g>
 <defs>
  <clipPath id="p2402a8c05f">
   <rect x="64.525938" y="64.08" width="727.257143" height="127.666412"/>
  </clipPath>
  <clipPath id="pd74a24b9c7">
   <rect x="64.525938" y="207.011683" width="727.257143" height="127.666412"/>
  </clipPath>
  <clipPath id="pae1275841e">
   <rect x="64.525938" y="349.943365" width="727.257143" height="127.666412"/>
  </clipPath>
  <clipPath id="p0cc758120e">
   <rect x="64.525938" y="492.875048" width="727.257143" height="127.666412"/>
  </clipPath>
  <clipPath id="p4e0614ac5b">
   <rect x="64.525938" y="635.806731" width="727.257143" height="127.666412"/>
  </clipPath>
 </defs>
</svg>
